<svg width="32" height="32" viewBox="0 0 32 32" fill="none" xmlns="http://www.w3.org/2000/svg">
<path d="M24 5.33334C24.2007 5.33335 24.3989 5.37867 24.5796 5.46594C24.7604 5.55321 24.9191 5.68017 25.044 5.83734L25.1427 5.98134L29.1427 12.648C29.2737 12.8666 29.3393 13.1182 29.3317 13.3729C29.3241 13.6277 29.2437 13.8749 29.1 14.0853L28.9933 14.2227L17.62 26.9333C17.4088 27.1488 17.1567 27.3199 16.8786 27.4367C16.6004 27.5535 16.3017 27.6135 16 27.6133C15.4667 27.6133 14.9533 27.4267 14.52 27.0573L14.34 26.8893L3.00667 14.2227C2.83617 14.0324 2.72391 13.7972 2.68325 13.545C2.6426 13.2928 2.67525 13.0342 2.77734 12.8L2.85734 12.6467L6.87467 5.95068L6.96 5.83068C7.02118 5.75489 7.09049 5.68603 7.16667 5.62534L7.28534 5.54001L7.40267 5.47334L7.46934 5.44268L7.54934 5.40934L7.69467 5.36668L7.844 5.34001L8 5.33334H24ZM12.152 10.5907C11.8489 10.4092 11.4861 10.3554 11.1434 10.4411C10.8006 10.5269 10.5059 10.7451 10.324 11.048L9.524 12.3813L9.444 12.536C9.34195 12.7713 9.30994 13.0311 9.3518 13.2841C9.39366 13.5372 9.50761 13.7728 9.68 13.9627L12.3467 16.896L12.4667 17.0133C12.7135 17.2245 13.0289 17.3384 13.3537 17.3335C13.6785 17.3286 13.9904 17.2052 14.2307 16.9867L14.3467 16.8667C14.5579 16.6199 14.6717 16.3044 14.6668 15.9796C14.6619 15.6548 14.5386 15.343 14.32 15.1027L12.3187 12.9027L12.6093 12.4187L12.6827 12.2813C12.8167 11.9835 12.8366 11.6467 12.7388 11.3351C12.641 11.0235 12.4322 10.7586 12.152 10.5907Z" fill="#A9A29D"/>
</svg>
