<svg width="225" height="189" viewBox="0 0 225 189" fill="none" xmlns="http://www.w3.org/2000/svg">
<g filter="url(#filter0_f_1_3899)">
<ellipse cx="103.377" cy="82.9692" rx="61.75" ry="39.2955" transform="rotate(-13.8891 103.377 82.9692)" fill="#131316" fill-opacity="0.6"/>
</g>
<g filter="url(#filter1_d_1_3899)">
<path d="M82.6361 73.2314L81.4963 94.4335L81.551 94.5032L75.621 96.6304L75.619 96.5419L67.71 88.3429L66.95 99.7409L60.9937 101.878L46.529 86.1841L53.0125 83.8583L61.0977 92.7972L61.6307 80.7667L67.508 78.6583L75.6345 87.4635L76.1526 75.5572L82.6361 73.2314ZM100.372 66.8987L106.487 64.7052L113.114 83.1804L107 85.3739L104.693 78.9431L93.6764 82.8951L95.9833 89.3259L89.8425 91.5288L83.2148 73.0535L89.3557 70.8507L91.6531 77.255L102.67 73.3031L100.372 66.8987ZM125.314 57.9811L140.208 73.4613L133.092 76.014L130.615 73.422L121.47 76.7028L121.179 80.2874L114.089 82.8307L115.773 61.4037L125.314 57.9811ZM121.738 70.5679L126.482 68.8661L122.38 64.8939L121.738 70.5679ZM128.941 56.6203L153.373 47.856L155.576 53.9968L146.431 57.2775L150.865 69.6383L144.724 71.8412L140.29 59.4804L131.144 62.7611L128.941 56.6203ZM163.862 43.558C168.105 42.0358 172.772 43.1876 173.906 46.3503C175.542 50.9098 170.169 53.7595 171.057 56.2369L165.18 58.3453C163.488 53.6276 168.852 52.328 167.935 49.7715C167.008 47.1887 162.235 49.1392 163.161 51.722C163.161 51.722 162.502 51.9584 157.178 53.8682C155.921 50.3629 157.062 45.9973 163.862 43.558ZM173.014 61.6925L167.137 63.8009L165.927 60.4274L171.804 58.319L173.014 61.6925Z" fill="url(#paint0_linear_1_3899)"/>
<path d="M93.4413 103.352L92.3014 124.554L92.3561 124.624L86.4262 126.751L86.4242 126.662L78.5152 118.463L77.7552 129.862L71.7989 131.998L57.3342 116.305L63.8177 113.979L71.9029 122.918L72.4359 110.887L78.3132 108.779L86.4396 117.584L86.9578 105.678L93.4413 103.352ZM111.177 97.0192L117.292 94.8258L123.92 113.301L117.805 115.494L115.498 109.064L104.482 113.016L106.788 119.446L100.648 121.649L94.02 103.174L100.161 100.971L102.458 107.376L113.475 103.424L111.177 97.0192ZM136.119 88.1017L151.013 103.582L143.897 106.135L141.42 103.543L132.275 106.823L131.984 110.408L124.894 112.951L126.578 91.5242L136.119 88.1017ZM132.543 100.688L137.287 98.9866L133.185 95.0145L132.543 100.688ZM139.747 86.7409L164.178 77.9766L166.381 84.1174L157.236 87.3981L161.67 99.7588L155.529 101.962L151.095 89.601L141.95 92.8817L139.747 86.7409ZM174.667 73.6786C178.91 72.1564 183.577 73.3082 184.712 76.4708C186.347 81.0303 180.974 83.8801 181.863 86.3575L175.985 88.4658C174.293 83.7482 179.657 82.4486 178.74 79.8921C177.814 77.3093 173.04 79.2597 173.966 81.8426C173.966 81.8426 173.307 82.0789 167.984 83.9888C166.726 80.4835 167.867 76.1178 174.667 73.6786ZM183.82 91.8131L177.942 93.9214L176.732 90.5479L182.609 88.4396L183.82 91.8131Z" fill="url(#paint1_linear_1_3899)"/>
<path d="M104.246 133.473L103.106 154.675L103.161 154.744L97.2312 156.872L97.2292 156.783L89.3202 148.584L88.5603 159.982L82.6039 162.119L68.1393 146.425L74.6227 144.099L82.7079 153.038L83.241 141.008L89.1182 138.899L97.2447 147.705L97.7629 135.798L104.246 133.473ZM121.983 127.14L128.097 124.946L134.725 143.422L128.61 145.615L126.303 139.184L115.287 143.136L117.594 149.567L111.453 151.77L104.825 133.295L110.966 131.092L113.263 137.496L124.28 133.544L121.983 127.14ZM146.924 118.222L161.818 133.702L154.702 136.255L152.225 133.663L143.08 136.944L142.789 140.529L135.7 143.072L137.383 121.645L146.924 118.222ZM143.348 130.809L148.092 129.107L143.99 125.135L143.348 130.809ZM150.552 116.861L174.983 108.097L177.186 114.238L168.041 117.519L172.475 129.879L166.334 132.082L161.9 119.722L152.755 123.002L150.552 116.861ZM185.472 103.799C189.715 102.277 194.382 103.429 195.517 106.591C197.152 111.151 191.779 114.001 192.668 116.478L186.79 118.586C185.098 113.869 190.462 112.569 189.545 110.013C188.619 107.43 183.845 109.38 184.771 111.963C184.771 111.963 184.112 112.2 178.789 114.109C177.531 110.604 178.672 106.238 185.472 103.799ZM194.625 121.934L188.747 124.042L187.537 120.669L193.414 118.56L194.625 121.934Z" fill="url(#paint2_linear_1_3899)"/>
</g>
<defs>
<filter id="filter0_f_1_3899" x="0.686157" y="0.0330353" width="205.382" height="165.872" filterUnits="userSpaceOnUse" color-interpolation-filters="sRGB">
<feFlood flood-opacity="0" result="BackgroundImageFix"/>
<feBlend mode="normal" in="SourceGraphic" in2="BackgroundImageFix" result="shape"/>
<feGaussianBlur stdDeviation="21" result="effect1_foregroundBlur_1_3899"/>
</filter>
<filter id="filter1_d_1_3899" x="19" y="9.00124" width="210.863" height="193.359" filterUnits="userSpaceOnUse" color-interpolation-filters="sRGB">
<feFlood flood-opacity="0" result="BackgroundImageFix"/>
<feColorMatrix in="SourceAlpha" type="matrix" values="0 0 0 0 0 0 0 0 0 0 0 0 0 0 0 0 0 0 127 0" result="hardAlpha"/>
<feOffset/>
<feGaussianBlur stdDeviation="12"/>
<feComposite in2="hardAlpha" operator="out"/>
<feColorMatrix type="matrix" values="0 0 0 0 0.0745098 0 0 0 0 0.0745098 0 0 0 0 0.0862745 0 0 0 1 0"/>
<feBlend mode="normal" in2="BackgroundImageFix" result="effect1_dropShadow_1_3899"/>
<feBlend mode="normal" in="SourceGraphic" in2="effect1_dropShadow_1_3899" result="shape"/>
</filter>
<linearGradient id="paint0_linear_1_3899" x1="50.0909" y1="98.352" x2="177.162" y2="52.7679" gradientUnits="userSpaceOnUse">
<stop stop-color="#FFB31E"/>
<stop offset="0.2" stop-color="#B57A05"/>
<stop offset="0.495" stop-color="#FFB31E"/>
<stop offset="0.67" stop-color="#FFD074"/>
<stop offset="0.85" stop-color="#B56F05"/>
<stop offset="1" stop-color="#FFB31E"/>
</linearGradient>
<linearGradient id="paint1_linear_1_3899" x1="60.896" y1="128.473" x2="187.967" y2="82.8884" gradientUnits="userSpaceOnUse">
<stop stop-color="#FFB31E"/>
<stop offset="0.2" stop-color="#B57A05"/>
<stop offset="0.495" stop-color="#FFB31E"/>
<stop offset="0.67" stop-color="#FFD074"/>
<stop offset="0.85" stop-color="#B56F05"/>
<stop offset="1" stop-color="#FFB31E"/>
</linearGradient>
<linearGradient id="paint2_linear_1_3899" x1="71.7011" y1="158.593" x2="198.772" y2="113.009" gradientUnits="userSpaceOnUse">
<stop stop-color="#FFB31E"/>
<stop offset="0.2" stop-color="#B57A05"/>
<stop offset="0.495" stop-color="#FFB31E"/>
<stop offset="0.67" stop-color="#FFD074"/>
<stop offset="0.85" stop-color="#B56F05"/>
<stop offset="1" stop-color="#FFB31E"/>
</linearGradient>
</defs>
</svg>
