<svg width="211" height="121" viewBox="0 0 211 121" fill="none" xmlns="http://www.w3.org/2000/svg">
<g filter="url(#filter0_di_74_1156)">
<path fill-rule="evenodd" clip-rule="evenodd" d="M188.129 76.9986C185.106 77.479 182.083 77.9569 179.062 78.3456C179.062 85.0442 179.062 91.7472 179.062 98.4409C179.062 105.134 179.062 111.833 179.062 118.526C188.706 118.526 198.353 118.526 208 118.526C208 115.267 208 112.003 208 108.74C201.376 109.015 194.752 109.287 188.129 109.51C188.129 104.099 188.129 98.6736 188.129 93.2554C188.129 87.842 188.129 82.4192 188.129 76.9986ZM148.838 89.3625C149.872 91.9008 150.911 94.4492 151.945 97.012C152.982 99.585 154.014 102.163 155.07 104.756C150.929 104.869 146.79 104.98 142.649 105.09C143.663 102.492 144.722 99.8895 145.734 97.2721C146.751 94.6448 147.805 92.0072 148.838 89.3625ZM170.533 118.526C167.799 112.07 165.084 105.692 162.355 99.424C159.66 93.2279 156.933 87.1314 154.221 81.0769C150.825 81.3192 147.432 81.5674 144.036 81.8173C141.304 88.0723 138.558 94.2656 135.84 100.387C133.135 106.481 130.374 112.526 127.662 118.526C130.85 118.526 134.059 118.526 137.266 118.526C138.158 116.295 139.049 114.056 139.959 111.81C145.879 111.743 151.82 111.662 157.76 111.57C158.65 113.878 159.541 116.201 160.45 118.526C163.806 118.526 167.157 118.526 170.533 118.526ZM120.313 82.7482C118.698 85.3264 117.07 87.9091 115.471 90.4672C113.881 93.0079 112.243 95.5462 110.649 98.0792C109.032 95.5409 107.396 92.9953 105.804 90.4522C104.21 87.9115 102.574 85.3511 100.981 82.7684C97.4616 82.6865 93.9424 82.6047 90.4235 82.5233C92.9911 86.369 95.5542 90.2023 98.1241 94.0181C100.687 97.8243 103.257 101.613 105.845 105.372C105.845 107.568 105.845 109.76 105.845 111.954C105.845 114.146 105.845 116.337 105.845 118.526C108.867 118.526 111.89 118.526 114.913 118.526C114.913 116.337 114.913 114.146 114.913 111.954C114.913 109.765 114.913 107.573 114.913 105.377C117.479 101.61 120.048 97.8218 122.613 94.0131C125.181 90.1973 127.746 86.3636 130.332 82.5004C126.981 82.595 123.647 82.6716 120.313 82.7482ZM60.2429 110.652C57.0757 110.595 55.9168 109.376 55.9168 106.102C55.9168 103.891 55.9168 101.668 55.9168 99.4535C55.9168 97.2423 55.9168 95.0234 55.9168 92.8045C55.9168 89.5336 57.0768 88.4144 60.2429 88.6274C63.8043 88.8649 67.364 89.0628 70.9239 89.244C74.132 89.4097 75.251 90.6208 75.251 93.7704C75.251 95.9026 75.251 98.0396 75.251 100.172C75.251 102.299 75.251 104.436 75.251 106.568C75.251 109.718 74.132 110.86 70.9239 110.815C67.3642 110.763 63.8028 110.716 60.2429 110.652ZM74.0912 118.526C77.57 118.526 80.1336 117.731 81.812 116.079C83.4875 114.43 84.3378 111.924 84.3378 108.48C84.3378 105.788 84.3378 103.089 84.3378 100.397C84.3378 97.7052 84.3378 95.006 84.3378 92.3092C84.3378 88.8648 83.4875 86.3169 81.812 84.5981C80.1336 82.872 77.5685 81.9562 74.0912 81.7308C68.4189 81.3641 62.7481 80.9532 57.0758 80.473C53.5985 80.1781 51.0059 80.7924 49.3338 82.3893C47.6535 83.9916 46.8292 86.6262 46.8292 90.3309C46.8292 93.231 46.8292 96.133 46.8292 99.0278C46.8292 101.92 46.8292 104.822 46.8292 107.717C46.8292 111.427 47.6535 114.141 49.3338 115.921C51.0059 117.692 53.5985 118.526 57.0758 118.526C62.7481 118.526 68.4189 118.526 74.0912 118.526ZM23.1068 84.3755C25.923 84.6972 26.7507 85.7768 26.7507 88.9067C26.7507 90.165 26.7507 91.4253 26.7507 92.6836C26.7507 95.8086 25.923 96.7619 23.1068 96.5562C18.7601 96.2393 14.4129 95.9199 10.067 95.5729C10.067 93.4532 10.067 91.3312 10.067 89.2164C10.067 87.0991 10.067 84.9718 10.067 82.8472C14.4129 83.3899 18.7601 83.8802 23.1068 84.3755ZM28.1786 103.431C33.5186 103.205 35.8374 100.325 35.8374 93.8326C35.8374 92.0001 35.8374 90.1603 35.8374 88.32C35.8374 81.1985 33.1398 78.056 26.647 77.2092C18.0899 76.0919 9.54856 74.7798 1 73.4502C1 80.9654 1 88.4833 1 95.9918C1 103.503 1 111.018 1 118.526C4.0222 118.526 7.04392 118.526 10.067 118.526C10.067 115.998 10.067 113.455 10.067 110.921C10.067 108.388 10.067 105.848 10.067 103.312C13.0258 103.47 15.9875 103.619 18.9463 103.76C20.3539 106.278 21.7975 108.784 23.2104 111.251C24.6123 113.697 26.0669 116.129 27.4957 118.526C30.8078 118.526 34.1196 118.526 37.4312 118.526C35.8791 116.075 34.3207 113.588 32.7945 111.085C31.2583 108.564 29.711 106.003 28.1786 103.431Z" fill="#282037"/>
<path fill-rule="evenodd" clip-rule="evenodd" d="M188.129 76.9986C185.106 77.479 182.083 77.9569 179.062 78.3456C179.062 85.0442 179.062 91.7472 179.062 98.4409C179.062 105.134 179.062 111.833 179.062 118.526C188.706 118.526 198.353 118.526 208 118.526C208 115.267 208 112.003 208 108.74C201.376 109.015 194.752 109.287 188.129 109.51C188.129 104.099 188.129 98.6736 188.129 93.2554C188.129 87.842 188.129 82.4192 188.129 76.9986ZM148.838 89.3625C149.872 91.9008 150.911 94.4492 151.945 97.012C152.982 99.585 154.014 102.163 155.07 104.756C150.929 104.869 146.79 104.98 142.649 105.09C143.663 102.492 144.722 99.8895 145.734 97.2721C146.751 94.6448 147.805 92.0072 148.838 89.3625ZM170.533 118.526C167.799 112.07 165.084 105.692 162.355 99.424C159.66 93.2279 156.933 87.1314 154.221 81.0769C150.825 81.3192 147.432 81.5674 144.036 81.8173C141.304 88.0723 138.558 94.2656 135.84 100.387C133.135 106.481 130.374 112.526 127.662 118.526C130.85 118.526 134.059 118.526 137.266 118.526C138.158 116.295 139.049 114.056 139.959 111.81C145.879 111.743 151.82 111.662 157.76 111.57C158.65 113.878 159.541 116.201 160.45 118.526C163.806 118.526 167.157 118.526 170.533 118.526ZM120.313 82.7482C118.698 85.3264 117.07 87.9091 115.471 90.4672C113.881 93.0079 112.243 95.5462 110.649 98.0792C109.032 95.5409 107.396 92.9953 105.804 90.4522C104.21 87.9115 102.574 85.3511 100.981 82.7684C97.4616 82.6865 93.9424 82.6047 90.4235 82.5233C92.9911 86.369 95.5542 90.2023 98.1241 94.0181C100.687 97.8243 103.257 101.613 105.845 105.372C105.845 107.568 105.845 109.76 105.845 111.954C105.845 114.146 105.845 116.337 105.845 118.526C108.867 118.526 111.89 118.526 114.913 118.526C114.913 116.337 114.913 114.146 114.913 111.954C114.913 109.765 114.913 107.573 114.913 105.377C117.479 101.61 120.048 97.8218 122.613 94.0131C125.181 90.1973 127.746 86.3636 130.332 82.5004C126.981 82.595 123.647 82.6716 120.313 82.7482ZM60.2429 110.652C57.0757 110.595 55.9168 109.376 55.9168 106.102C55.9168 103.891 55.9168 101.668 55.9168 99.4535C55.9168 97.2423 55.9168 95.0234 55.9168 92.8045C55.9168 89.5336 57.0768 88.4144 60.2429 88.6274C63.8043 88.8649 67.364 89.0628 70.9239 89.244C74.132 89.4097 75.251 90.6208 75.251 93.7704C75.251 95.9026 75.251 98.0396 75.251 100.172C75.251 102.299 75.251 104.436 75.251 106.568C75.251 109.718 74.132 110.86 70.9239 110.815C67.3642 110.763 63.8028 110.716 60.2429 110.652ZM74.0912 118.526C77.57 118.526 80.1336 117.731 81.812 116.079C83.4875 114.43 84.3378 111.924 84.3378 108.48C84.3378 105.788 84.3378 103.089 84.3378 100.397C84.3378 97.7052 84.3378 95.006 84.3378 92.3092C84.3378 88.8648 83.4875 86.3169 81.812 84.5981C80.1336 82.872 77.5685 81.9562 74.0912 81.7308C68.4189 81.3641 62.7481 80.9532 57.0758 80.473C53.5985 80.1781 51.0059 80.7924 49.3338 82.3893C47.6535 83.9916 46.8292 86.6262 46.8292 90.3309C46.8292 93.231 46.8292 96.133 46.8292 99.0278C46.8292 101.92 46.8292 104.822 46.8292 107.717C46.8292 111.427 47.6535 114.141 49.3338 115.921C51.0059 117.692 53.5985 118.526 57.0758 118.526C62.7481 118.526 68.4189 118.526 74.0912 118.526ZM23.1068 84.3755C25.923 84.6972 26.7507 85.7768 26.7507 88.9067C26.7507 90.165 26.7507 91.4253 26.7507 92.6836C26.7507 95.8086 25.923 96.7619 23.1068 96.5562C18.7601 96.2393 14.4129 95.9199 10.067 95.5729C10.067 93.4532 10.067 91.3312 10.067 89.2164C10.067 87.0991 10.067 84.9718 10.067 82.8472C14.4129 83.3899 18.7601 83.8802 23.1068 84.3755ZM28.1786 103.431C33.5186 103.205 35.8374 100.325 35.8374 93.8326C35.8374 92.0001 35.8374 90.1603 35.8374 88.32C35.8374 81.1985 33.1398 78.056 26.647 77.2092C18.0899 76.0919 9.54856 74.7798 1 73.4502C1 80.9654 1 88.4833 1 95.9918C1 103.503 1 111.018 1 118.526C4.0222 118.526 7.04392 118.526 10.067 118.526C10.067 115.998 10.067 113.455 10.067 110.921C10.067 108.388 10.067 105.848 10.067 103.312C13.0258 103.47 15.9875 103.619 18.9463 103.76C20.3539 106.278 21.7975 108.784 23.2104 111.251C24.6123 113.697 26.0669 116.129 27.4957 118.526C30.8078 118.526 34.1196 118.526 37.4312 118.526C35.8791 116.075 34.3207 113.588 32.7945 111.085C31.2583 108.564 29.711 106.003 28.1786 103.431Z" fill="url(#paint0_linear_74_1156)"/>
</g>
<g filter="url(#filter1_di_74_1156)">
<path d="M109.612 59L101 0H114.295L119.414 40.1374L123.978 0H137.272L128.661 59H109.612Z" fill="url(#paint1_linear_74_1156)"/>
<path d="M148.853 59V0.0335037H162.346V59H148.853Z" fill="url(#paint2_linear_74_1156)"/>
<path d="M176.029 59V0.0335037H194.483C198.346 0.0335037 201.401 0.759417 203.65 2.21124C205.926 3.66307 207.553 5.72913 208.532 8.40943C209.511 11.0897 210 14.2837 210 17.9915C210 21.5652 209.59 24.6811 208.77 27.339C207.95 29.9746 206.481 32.0184 204.365 33.4702C202.275 34.922 199.298 35.6479 195.435 35.6479H189.76V59H176.029ZM189.76 25.0608H190.554C193.147 25.0608 194.734 24.4465 195.316 23.2181C195.898 21.9896 196.189 20.1804 196.189 17.7905C196.189 15.5569 195.898 13.837 195.316 12.6309C194.761 11.4024 193.425 10.7882 191.308 10.7882H189.76V25.0608Z" fill="url(#paint3_linear_74_1156)"/>
<path d="M6.31127 8.88988H16.0501H49.7143H62.4619L67.7747 17.067H49.7143H32.4617H21.6006H11.8609H10.7394H1L39.817 63L45.2622 56.5583L19.373 25.9568H29.1127C34.3203 32.1188 39.4955 38.2705 44.6735 44.4221L44.6632 44.4366L50.0835 50.8506L55.5052 44.4366L55.4934 44.4221C58.3794 40.9935 61.2638 37.5652 64.1544 34.1341H53.3374L50.0835 37.9975L39.9459 25.9568H60.2601H71.1213L78 17.8174L77.513 17.067L66.4283 0H12.0849L6.31127 8.88988Z" fill="url(#paint4_linear_74_1156)"/>
</g>
<defs>
<filter id="filter0_di_74_1156" x="0.5" y="73.4502" width="208" height="46.5762" filterUnits="userSpaceOnUse" color-interpolation-filters="sRGB">
<feFlood flood-opacity="0" result="BackgroundImageFix"/>
<feColorMatrix in="SourceAlpha" type="matrix" values="0 0 0 0 0 0 0 0 0 0 0 0 0 0 0 0 0 0 127 0" result="hardAlpha"/>
<feOffset dy="1"/>
<feGaussianBlur stdDeviation="0.25"/>
<feComposite in2="hardAlpha" operator="out"/>
<feColorMatrix type="matrix" values="0 0 0 0 0 0 0 0 0 0 0 0 0 0 0 0 0 0 0.42 0"/>
<feBlend mode="normal" in2="BackgroundImageFix" result="effect1_dropShadow_74_1156"/>
<feBlend mode="normal" in="SourceGraphic" in2="effect1_dropShadow_74_1156" result="shape"/>
<feColorMatrix in="SourceAlpha" type="matrix" values="0 0 0 0 0 0 0 0 0 0 0 0 0 0 0 0 0 0 127 0" result="hardAlpha"/>
<feOffset dy="1"/>
<feGaussianBlur stdDeviation="0.25"/>
<feComposite in2="hardAlpha" operator="arithmetic" k2="-1" k3="1"/>
<feColorMatrix type="matrix" values="0 0 0 0 1 0 0 0 0 1 0 0 0 0 1 0 0 0 0.32 0"/>
<feBlend mode="normal" in2="shape" result="effect2_innerShadow_74_1156"/>
</filter>
<filter id="filter1_di_74_1156" x="0.5" y="0" width="210" height="64.5" filterUnits="userSpaceOnUse" color-interpolation-filters="sRGB">
<feFlood flood-opacity="0" result="BackgroundImageFix"/>
<feColorMatrix in="SourceAlpha" type="matrix" values="0 0 0 0 0 0 0 0 0 0 0 0 0 0 0 0 0 0 127 0" result="hardAlpha"/>
<feOffset dy="1"/>
<feGaussianBlur stdDeviation="0.25"/>
<feComposite in2="hardAlpha" operator="out"/>
<feColorMatrix type="matrix" values="0 0 0 0 0 0 0 0 0 0 0 0 0 0 0 0 0 0 0.42 0"/>
<feBlend mode="normal" in2="BackgroundImageFix" result="effect1_dropShadow_74_1156"/>
<feBlend mode="normal" in="SourceGraphic" in2="effect1_dropShadow_74_1156" result="shape"/>
<feColorMatrix in="SourceAlpha" type="matrix" values="0 0 0 0 0 0 0 0 0 0 0 0 0 0 0 0 0 0 127 0" result="hardAlpha"/>
<feOffset dy="1"/>
<feGaussianBlur stdDeviation="0.25"/>
<feComposite in2="hardAlpha" operator="arithmetic" k2="-1" k3="1"/>
<feColorMatrix type="matrix" values="0 0 0 0 1 0 0 0 0 1 0 0 0 0 1 0 0 0 0.32 0"/>
<feBlend mode="normal" in2="shape" result="effect2_innerShadow_74_1156"/>
</filter>
<linearGradient id="paint0_linear_74_1156" x1="-82.8577" y1="95.9882" x2="312.255" y2="95.9882" gradientUnits="userSpaceOnUse">
<stop stop-color="#FFB31E"/>
<stop offset="0.2" stop-color="#B57A05"/>
<stop offset="0.495" stop-color="#FFB31E"/>
<stop offset="0.67" stop-color="#FFD074"/>
<stop offset="0.85" stop-color="#B56F05"/>
<stop offset="1" stop-color="#FFB31E"/>
</linearGradient>
<linearGradient id="paint1_linear_74_1156" x1="56.8431" y1="29.5" x2="264.898" y2="29.5" gradientUnits="userSpaceOnUse">
<stop stop-color="#FFB31E"/>
<stop offset="0.2" stop-color="#B57A05"/>
<stop offset="0.495" stop-color="#FFB31E"/>
<stop offset="0.67" stop-color="#FFD074"/>
<stop offset="0.85" stop-color="#B56F05"/>
<stop offset="1" stop-color="#FFB31E"/>
</linearGradient>
<linearGradient id="paint2_linear_74_1156" x1="56.8431" y1="29.5" x2="264.898" y2="29.5" gradientUnits="userSpaceOnUse">
<stop stop-color="#FFB31E"/>
<stop offset="0.2" stop-color="#B57A05"/>
<stop offset="0.495" stop-color="#FFB31E"/>
<stop offset="0.67" stop-color="#FFD074"/>
<stop offset="0.85" stop-color="#B56F05"/>
<stop offset="1" stop-color="#FFB31E"/>
</linearGradient>
<linearGradient id="paint3_linear_74_1156" x1="56.8431" y1="29.5" x2="264.898" y2="29.5" gradientUnits="userSpaceOnUse">
<stop stop-color="#FFB31E"/>
<stop offset="0.2" stop-color="#B57A05"/>
<stop offset="0.495" stop-color="#FFB31E"/>
<stop offset="0.67" stop-color="#FFD074"/>
<stop offset="0.85" stop-color="#B56F05"/>
<stop offset="1" stop-color="#FFB31E"/>
</linearGradient>
<linearGradient id="paint4_linear_74_1156" x1="-30.1934" y1="31.5" x2="116.781" y2="31.5" gradientUnits="userSpaceOnUse">
<stop stop-color="#FFB31E"/>
<stop offset="0.2" stop-color="#B57A05"/>
<stop offset="0.495" stop-color="#FFB31E"/>
<stop offset="0.67" stop-color="#FFD074"/>
<stop offset="0.85" stop-color="#B56F05"/>
<stop offset="1" stop-color="#FFB31E"/>
</linearGradient>
</defs>
</svg>
