<svg width="108" height="15" viewBox="0 0 108 15" fill="none" xmlns="http://www.w3.org/2000/svg">
<path d="M9.84067 14.4324H1.64267C1.64701 10.936 1.60909 7.4388 1.67703 3.9436C1.7039 2.56614 1.63082 1.30047 0.522369 0.317247C0.446129 0.249697 0.435858 0.107882 0.394775 0.000434875L10.0188 0.000434875C10.3202 0.105117 10.6212 0.210589 10.9234 0.313692C13.0021 1.02593 14.0236 3.32894 12.9969 5.26497C12.6228 5.97048 11.8944 6.48837 11.3378 7.0817C11.3031 7.06392 11.3757 7.1054 11.4516 7.13937C13.01 7.83975 13.9229 9.38194 13.7191 10.9711C13.4864 12.7835 12.3372 13.9583 10.517 14.257C10.2882 14.2945 10.0662 14.3727 9.84107 14.4324H9.84067ZM4.70136 11.7197C6.22854 11.7197 7.67434 11.7849 9.11027 11.6964C10.0508 11.6383 10.5742 10.9648 10.5971 10.1096C10.6189 9.29306 10.1207 8.50814 9.2979 8.45521C7.781 8.35764 6.25303 8.42716 4.70136 8.42716V11.7197ZM4.71401 5.72399C6.15191 5.72399 7.51317 5.7623 8.87127 5.71016C9.74823 5.67658 10.3388 5.01531 10.3479 4.22525C10.3566 3.47233 9.80749 2.75773 8.99334 2.71664C7.58388 2.64514 6.1681 2.69689 4.7144 2.69689V5.72399H4.71401Z" fill="url(#paint0_linear_1_2159)"/>
<path d="M28.3754 14.4323C28.371 10.7661 28.3232 7.09902 28.3876 3.43356C28.4078 2.29509 28.1925 1.35453 27.3641 0.567238C27.197 0.408437 27.086 0.191172 26.9493 0.00037384C28.4943 0.00037384 30.0388 0.00037384 31.5834 0.00037384C31.6549 0.15562 31.7019 0.329037 31.8011 0.463346C33.8228 3.19615 35.8501 5.925 37.8805 8.65147C37.937 8.72732 38.0401 8.76801 38.1772 8.864V0.00037384L41.3852 0.00037384C41.3595 0.530501 41.3125 1.06102 41.3117 1.59115C41.3054 5.44622 41.3082 9.30169 41.3082 13.1568V14.2988C40.3467 14.2988 39.4895 14.3426 38.6421 14.2723C38.3869 14.251 38.1049 13.9527 37.926 13.7134C36.0081 11.1504 34.1092 8.57365 32.2032 6.00203C31.9994 5.72709 31.7856 5.45926 31.4048 4.96508V14.4323H28.375H28.3754Z" fill="url(#paint1_linear_1_2159)"/>
<path d="M75.7818 0.00037384V14.2826C74.8349 14.2826 73.9287 14.3209 73.03 14.2553C72.8104 14.2391 72.5833 13.9065 72.4138 13.679C70.4473 11.0394 68.4916 8.39194 66.531 5.74842C66.3963 5.56671 66.2446 5.39763 65.9792 5.0745V14.4327H62.7712C62.7874 11.0837 62.7731 7.73422 62.834 4.38597C62.8624 2.82442 62.9126 1.30199 61.5766 0.165495C61.5391 0.133893 61.5407 0.0568628 61.5237 0.000768868C63.009 0.000768868 64.4939 0.000768868 65.9792 0.000768868C68.1767 2.96189 70.3743 5.92263 72.5714 8.88375C72.6315 8.84622 72.6915 8.80909 72.7515 8.77156V0.00037384L75.7814 0.00037384H75.7818Z" fill="url(#paint2_linear_1_2159)"/>
<path d="M92.178 14.4323C93.2884 11.534 94.3972 8.63492 95.51 5.73739C95.8814 4.77076 96.2306 3.79385 96.6485 2.84776C96.9503 2.16516 97.0348 1.58802 96.4075 1.02985C96.0801 0.738712 95.8423 0.34724 95.5642 0.000801086C97.5247 0.000801086 99.4848 0.000801086 101.445 0.000801086C102.642 3.04409 103.83 6.09133 105.04 9.12949C105.724 10.8455 106.444 12.5465 107.148 14.2542C106.881 14.3134 106.615 14.4181 106.346 14.424C105.426 14.4454 104.505 14.4323 103.584 14.4323C103.377 13.7944 103.223 13.1307 102.936 12.5307C102.811 12.2688 102.421 11.9926 102.135 11.9741C101.106 11.9073 100.07 11.9413 99.0368 11.9496C98.212 11.9563 97.151 11.6735 96.6244 12.078C96.0228 12.5402 95.8968 13.6206 95.5642 14.4323H92.178ZM99.5563 3.00222C98.7457 5.22385 98.0232 7.20531 97.2762 9.25274H101.862C101.102 7.19425 100.373 5.21714 99.5563 3.00222Z" fill="url(#paint3_linear_1_2159)"/>
<path d="M86.2966 0.00037384C87.2249 0.361824 88.2196 0.612666 89.0622 1.11751C89.8222 1.57258 90.4156 2.30496 91.193 3.01601C90.2591 3.53468 89.5185 3.9467 88.7023 4.40019C87.7231 3.12267 86.4408 2.48865 84.7979 2.63955C83.0222 2.8023 81.5488 4.08733 81.0625 5.95778C80.5383 7.974 81.2948 10.1135 82.8978 11.1477C84.3946 12.1135 86.7465 12.1103 87.9818 10.9565C88.3697 10.5942 88.3326 9.7773 88.4945 9.15079C86.3725 8.77235 86.1303 8.59499 84.7943 6.49541C85.9877 6.49541 87.0977 6.49541 88.2078 6.49541C88.9792 6.49541 89.7519 6.52149 90.5222 6.48751C91.0768 6.46302 91.2396 6.68819 91.2285 7.21832C91.2009 8.55272 91.2341 9.8887 91.2072 11.2231C91.2017 11.4953 91.1207 11.8441 90.9409 12.023C88.7122 14.2383 86.0043 14.7736 83.057 14.0077C80.2981 13.2903 78.5217 11.4747 77.9809 8.64081C77.1727 4.40532 79.6515 0.930268 83.9363 0.16352C84.075 0.138633 84.203 0.0564677 84.3361 0.0011639C84.9895 0.0011639 85.6428 0.0011639 86.2966 0.0011639V0.00037384Z" fill="url(#paint4_linear_1_2159)"/>
<path d="M25.8805 0.000395027V2.65024H18.7443V5.73343H24.5496V8.31809H18.7637V11.7102H25.7849V14.2585H15.6315C15.6315 13.8611 15.6315 13.5119 15.6315 13.1627C15.6315 9.12671 15.6335 5.09072 15.6276 1.05472C15.6272 0.703149 15.5726 0.351574 15.5434 0C18.9888 0 22.4347 0 25.8801 0L25.8805 0.000395027Z" fill="url(#paint5_linear_1_2159)"/>
<path d="M54.0392 0.00037384C54.0218 0.0872799 53.9764 0.178926 53.991 0.259907C54.292 1.96524 53.4945 3.23209 52.4753 4.50211C50.77 6.62814 49.1831 8.84938 47.5509 11.0339C47.4182 11.2113 47.3182 11.4131 47.1381 11.711H53.9807V14.251H43.1965C43.1009 13.0126 43.0081 11.9108 43.889 10.8146C45.8183 8.41406 47.5912 5.88747 49.4269 3.41104C49.5655 3.2238 49.6919 3.02786 49.9289 2.68459H43.1677V0.00037384C46.7916 0.00037384 50.4152 0.00037384 54.0392 0.00037384Z" fill="url(#paint6_linear_1_2159)"/>
<path d="M59.5641 0.00037384V14.4323H56.5342V0.00037384L59.5641 0.00037384Z" fill="url(#paint7_linear_1_2159)"/>
<defs>
<linearGradient id="paint0_linear_1_2159" x1="7.07105" y1="0.000434875" x2="7.07105" y2="14.4324" gradientUnits="userSpaceOnUse">
<stop stop-color="#F4B515"/>
<stop offset="1" stop-color="#D29803"/>
</linearGradient>
<linearGradient id="paint1_linear_1_2159" x1="34.1673" y1="0.00037384" x2="34.1673" y2="14.4323" gradientUnits="userSpaceOnUse">
<stop stop-color="#F4B515"/>
<stop offset="1" stop-color="#D29803"/>
</linearGradient>
<linearGradient id="paint2_linear_1_2159" x1="68.6527" y1="0.00037384" x2="68.6527" y2="14.4327" gradientUnits="userSpaceOnUse">
<stop stop-color="#F4B515"/>
<stop offset="1" stop-color="#D29803"/>
</linearGradient>
<linearGradient id="paint3_linear_1_2159" x1="99.6632" y1="0.000801086" x2="99.6632" y2="14.4363" gradientUnits="userSpaceOnUse">
<stop stop-color="#F4B515"/>
<stop offset="1" stop-color="#D29803"/>
</linearGradient>
<linearGradient id="paint4_linear_1_2159" x1="84.529" y1="0.00037384" x2="84.529" y2="14.3367" gradientUnits="userSpaceOnUse">
<stop stop-color="#F4B515"/>
<stop offset="1" stop-color="#D29803"/>
</linearGradient>
<linearGradient id="paint5_linear_1_2159" x1="20.712" y1="0" x2="20.712" y2="14.2585" gradientUnits="userSpaceOnUse">
<stop stop-color="#F4B515"/>
<stop offset="1" stop-color="#D29803"/>
</linearGradient>
<linearGradient id="paint6_linear_1_2159" x1="48.5963" y1="0.00037384" x2="48.5963" y2="14.251" gradientUnits="userSpaceOnUse">
<stop stop-color="#F4B515"/>
<stop offset="1" stop-color="#D29803"/>
</linearGradient>
<linearGradient id="paint7_linear_1_2159" x1="58.0492" y1="0.00037384" x2="58.0492" y2="14.4323" gradientUnits="userSpaceOnUse">
<stop stop-color="#F4B515"/>
<stop offset="1" stop-color="#D29803"/>
</linearGradient>
</defs>
</svg>
