<svg width="108" height="34" viewBox="0 0 108 34" fill="none" xmlns="http://www.w3.org/2000/svg">
<path d="M0.000167847 0.261238C0.0347197 0.256238 0.0692716 0.24707 0.103823 0.24707C1.80951 0.251237 3.51561 0.23957 5.22087 0.268322C6.08593 0.282906 6.91813 0.487918 7.66521 0.944195C8.68828 1.56881 9.15389 2.51387 9.22046 3.66977C9.27145 4.55441 9.09153 5.38195 8.50794 6.08491C8.37563 6.24409 8.21762 6.38743 8.05202 6.51285C7.89316 6.63328 7.70861 6.72162 7.5527 6.81371C7.81395 6.96871 8.10932 7.10581 8.35919 7.29957C9.19223 7.94461 9.62497 8.80466 9.65405 9.84847C9.6886 11.0819 9.33887 12.1649 8.31495 12.9536C7.67195 13.4487 6.91981 13.6874 6.12133 13.7816C5.72525 13.8283 5.32369 13.8445 4.92465 13.8462C3.37319 13.8533 1.82173 13.8487 0.270684 13.85C0.180512 13.85 0.0903398 13.8629 0.000167847 13.87C0.000167847 9.33385 0.000167847 4.79775 0.000167847 0.261238ZM2.21191 11.8436C3.29271 11.8436 4.34528 11.8457 5.39785 11.8411C5.5369 11.8407 5.67763 11.8169 5.81457 11.7882C6.55828 11.6315 7.13934 11.261 7.34666 10.5018C7.55312 9.74554 7.47938 9.0205 6.87515 8.44047C6.44409 8.02669 5.89 7.88793 5.30894 7.87793C4.31915 7.86127 3.32895 7.8696 2.33874 7.86835C2.29871 7.86835 2.2591 7.87835 2.21191 7.8846V11.8432V11.8436ZM2.20896 5.92199C3.25858 5.92199 4.2846 5.96449 5.30514 5.9099C6.29198 5.85698 6.89411 5.31237 7.01546 4.45898C7.05676 4.16938 7.03695 3.86228 6.9906 3.57143C6.91223 3.08182 6.62991 2.70346 6.16346 2.51845C5.83691 2.38886 5.48001 2.28302 5.13196 2.26761C4.20033 2.22677 3.26616 2.24052 2.33284 2.23427C2.29281 2.23427 2.2532 2.24885 2.20896 2.2576V5.92199Z" fill="url(#paint0_linear_1_2195)"/>
<path d="M58.5287 33.097C58.5299 32.1678 58.5324 31.2386 58.5329 30.309C58.5333 26.9175 58.5329 23.5261 58.5329 20.1346V19.875C58.6176 19.8709 58.6854 19.8642 58.7532 19.8642C60.3894 19.8638 62.0256 19.8629 63.6617 19.8642C64.8289 19.865 65.9522 20.0654 66.9968 20.6009C68.4071 21.3239 69.3543 22.4493 69.8334 23.9332C70.452 25.85 70.4208 27.7667 69.5945 29.6202C68.7804 31.4465 67.312 32.5053 65.3569 32.9254C64.9953 33.0029 64.6249 33.0408 64.2588 33.097H58.5282H58.5287ZM60.8234 31.1186C62.0121 31.0969 63.1826 31.1448 64.3388 31.0382C65.9817 30.8869 67.119 30.0014 67.6546 28.4355C68.0005 27.4238 68.0279 26.3821 67.8598 25.3337C67.7253 24.497 67.4245 23.729 66.8405 23.0915C66.101 22.2839 65.1458 21.9143 64.0725 21.8676C63.0356 21.8226 61.9952 21.8489 60.9566 21.8447C60.9161 21.8447 60.8756 21.8551 60.8234 21.8622V31.1182V31.1186Z" fill="url(#paint1_linear_1_2195)"/>
<path d="M89.4563 33.0953C89.4618 32.9991 89.4727 32.9024 89.4727 32.8061C89.4736 28.5892 89.4736 24.3723 89.4736 20.155V19.8754C89.5532 19.87 89.6139 19.8625 89.6742 19.8625C91.1978 19.8616 92.7219 19.86 94.2455 19.8625C95.0099 19.8637 95.7574 19.9679 96.4653 20.2683C97.7732 20.8238 98.4634 21.8297 98.6374 23.2031C98.7183 23.8414 98.6846 24.4786 98.5426 25.1057C98.2207 26.5254 97.2861 27.3129 95.8741 27.5975C95.8261 27.6071 95.7776 27.6154 95.73 27.6267C95.7098 27.6313 95.6912 27.6421 95.6491 27.6592C95.7346 27.7588 95.8139 27.8521 95.8939 27.945C97.3202 29.5964 98.747 31.2473 100.173 32.8991C100.227 32.962 100.277 33.0291 100.328 33.0941H97.7998C97.7614 33.0378 97.7277 32.9774 97.6839 32.9257C96.2913 31.284 94.8936 29.6468 93.5094 27.9979C93.3354 27.7908 93.1631 27.7021 92.8921 27.7179C92.4965 27.7408 92.0983 27.7238 91.6904 27.7238V33.0941H89.4572L89.4563 33.0953ZM91.6938 25.8395C92.6507 25.8395 93.5937 25.8982 94.5258 25.8249C95.7384 25.7295 96.3608 25.1015 96.4758 24.0252C96.5782 23.0672 96.0772 22.2493 95.1827 21.9576C94.9265 21.8743 94.6492 21.823 94.38 21.8163C93.5318 21.7959 92.6827 21.8038 91.8341 21.8022C91.7886 21.8022 91.7431 21.8155 91.6938 21.8234V25.8395Z" fill="url(#paint2_linear_1_2195)"/>
<path d="M74.4138 33.0977C74.4164 33.0077 74.4206 32.9177 74.4206 32.8277C74.4206 28.6041 74.4206 24.3805 74.4206 20.1565V19.8778H82.7682V21.8379H76.7309V25.0226H82.1413V26.9828H76.725V31.0926H82.7986V33.0977H74.4138Z" fill="url(#paint3_linear_1_2195)"/>
<path d="M107.87 10.6228C107.834 10.7907 107.803 10.9599 107.762 11.1262C107.431 12.4425 106.545 13.248 105.296 13.6967C104.005 14.1609 102.68 14.1439 101.35 13.8893C100.517 13.7297 99.7314 13.4421 99.0084 12.9955C98.8727 12.9117 98.8065 12.8217 98.8095 12.65C98.8217 11.9362 98.8145 11.2216 98.8145 10.4732C98.8849 10.5195 98.9355 10.5486 98.9814 10.5841C100.098 11.4399 101.352 11.9466 102.772 12.0175C103.408 12.0491 104.036 12.0046 104.631 11.7541C105.244 11.4962 105.617 11.0541 105.665 10.3832C105.711 9.72943 105.485 9.18398 104.904 8.84438C104.508 8.61311 104.082 8.4256 103.656 8.25351C102.774 7.89765 101.874 7.5843 100.998 7.21386C100.642 7.06344 100.31 6.83634 100.004 6.59799C99.0459 5.85212 98.6906 4.83247 98.713 3.66157C98.7437 2.05106 99.6741 0.811821 101.314 0.314708C103.314 -0.291577 105.225 -0.00572715 107.024 1.03308C107.089 1.07059 107.16 1.16559 107.161 1.23476C107.17 1.94897 107.166 2.6636 107.165 3.3778C107.165 3.39656 107.154 3.41531 107.142 3.45614C107.016 3.36697 106.899 3.28405 106.782 3.20113C105.6 2.3665 104.299 1.92814 102.832 2.04898C102.351 2.08856 101.89 2.20315 101.494 2.494C100.741 3.04612 100.685 4.23286 101.411 4.81872C101.688 5.04207 102.024 5.21 102.358 5.34375C103.365 5.74669 104.397 6.09005 105.392 6.51841C105.866 6.72258 106.313 7.02635 106.711 7.3572C107.403 7.9314 107.737 8.7102 107.831 9.59275C107.837 9.64609 107.857 9.69734 107.871 9.74985V10.6236L107.87 10.6228Z" fill="url(#paint4_linear_1_2195)"/>
<path d="M38.0497 33.0956C37.6692 33.0397 37.2871 32.9952 36.9091 32.9264C36.0824 32.7756 35.2974 32.5064 34.5701 32.0822C34.4399 32.0063 34.3914 31.9188 34.3931 31.7676C34.402 31.0963 34.3969 30.4246 34.3969 29.7062C34.4867 29.7666 34.5465 29.8054 34.6047 29.8466C35.8763 30.7488 37.2896 31.2142 38.8604 31.175C39.4175 31.1613 39.9598 31.0705 40.4679 30.8159C41.5298 30.2833 41.5096 28.802 40.6424 28.2782C40.2214 28.024 39.7609 27.8236 39.2999 27.6457C38.4188 27.3061 37.5171 27.0186 36.6394 26.671C36.2733 26.526 35.9336 26.301 35.6045 26.0798C33.8571 24.9043 33.6326 21.6637 36.1439 20.4432C37.0406 20.0073 37.9912 19.8448 38.9801 19.8652C40.2484 19.8915 41.4535 20.1632 42.5722 20.7749C42.7281 20.8599 42.785 20.9553 42.7821 21.132C42.7707 21.782 42.7774 22.4325 42.7774 23.1262C42.6506 23.0404 42.555 22.9762 42.4597 22.9116C41.2588 22.0966 39.9425 21.6745 38.4749 21.7757C37.9794 21.8099 37.5015 21.9133 37.084 22.1983C36.323 22.7183 36.2728 23.8421 37.0115 24.3938C37.2972 24.6072 37.6372 24.7647 37.9743 24.8913C38.983 25.2701 40.0137 25.5943 41.0132 25.9947C41.4674 26.1768 41.9039 26.4456 42.287 26.7502C43.2633 27.5269 43.5654 28.597 43.46 29.7845C43.3256 31.3034 42.3923 32.2139 41.0064 32.7047C40.4974 32.8851 39.9442 32.9427 39.4107 33.0564C39.3501 33.0693 39.2894 33.0822 39.2287 33.0952H38.0489L38.0497 33.0956Z" fill="url(#paint5_linear_1_2195)"/>
<path d="M8.34373 33.098C8.35006 33.0017 8.36227 32.9059 8.36227 32.8096C8.36312 28.5952 8.36312 24.3812 8.36312 20.1668V19.873H10.8719V33.098H8.34373Z" fill="url(#paint6_linear_1_2195)"/>
<path d="M49.342 33.0973V19.8778H51.8264C51.8306 19.9436 51.8386 20.0099 51.8386 20.0761C51.839 24.3614 51.839 28.6462 51.8386 32.9314C51.8386 32.9864 51.8318 33.0419 51.8281 33.0969L49.342 33.0973Z" fill="url(#paint7_linear_1_2195)"/>
<path d="M65.5687 14.0265C62.5483 11.0196 59.528 8.01276 56.5081 5.00592C56.4874 5.0155 56.4664 5.02509 56.4457 5.03426V13.8173H54.2761V0.0356293C57.3399 3.00039 60.3796 5.94139 63.4513 8.91365V0.238975H65.6264V13.9844C65.607 13.9985 65.5877 14.0123 65.5687 14.0265Z" fill="url(#paint8_linear_1_2195)"/>
<path d="M17.5805 19.8849C20.7319 22.683 23.855 25.456 27.0203 28.2662V20.0811H29.2518V33.0807C26.0967 30.2301 22.9714 27.4062 19.8137 24.5531V32.8756H17.5805V19.8849Z" fill="url(#paint9_linear_1_2195)"/>
<path d="M14.5479 0.256546H16.806C16.806 0.348635 16.806 0.42989 16.806 0.511144C16.806 3.05671 16.8073 5.60228 16.8056 8.14784C16.8051 8.8383 16.8654 9.51876 17.1009 10.1746C17.5092 11.3114 18.381 11.9597 19.6051 11.9931C20.029 12.0047 20.4672 11.9835 20.8772 11.8872C21.9348 11.6389 22.51 10.8984 22.7932 9.90336C22.9596 9.31791 23.0055 8.71746 23.0055 8.11201C23.0047 5.58019 23.0055 3.04879 23.0055 0.516978V0.258213H25.2729C25.2729 0.340718 25.2729 0.414472 25.2729 0.488643C25.2729 3.11046 25.2741 5.73228 25.272 8.3541C25.2712 9.28208 25.1638 10.1946 24.8136 11.0651C24.2443 12.4789 23.2179 13.4057 21.7376 13.824C20.5507 14.1594 19.3493 14.1707 18.1607 13.8473C16.2999 13.3411 15.1901 12.1022 14.7582 10.2734C14.6221 9.69793 14.553 9.09457 14.5483 8.50328C14.5264 5.81937 14.5382 3.13505 14.5386 0.450724C14.5386 0.389887 14.5449 0.328634 14.5487 0.256546H14.5479Z" fill="url(#paint10_linear_1_2195)"/>
<path d="M79.8094 0.261307V2.27893H73.9525V5.55245H79.2035V7.56632H73.9533V11.7845H79.8048V13.8342H71.7272V0.261307H79.8094Z" fill="url(#paint11_linear_1_2195)"/>
<path d="M85.1137 10.4575C85.7373 10.9521 86.3681 11.3367 87.0692 11.5963C88.2183 12.0218 89.3943 12.1814 90.5981 11.8663C91.25 11.6955 91.7565 11.3384 91.92 10.6392C92.0856 9.93247 91.8639 9.24827 91.2365 8.87908C90.6934 8.55948 90.0912 8.33446 89.5064 8.08778C88.6565 7.72943 87.7632 7.45566 86.9521 7.02814C85.1078 6.05683 84.4395 3.79128 85.42 2.01659C85.9505 1.05654 86.8118 0.49817 87.8538 0.236072C89.7723 -0.246873 91.5951 0.0339765 93.3083 1.0157C93.4251 1.08279 93.4672 1.16196 93.4655 1.29738C93.4579 2.00951 93.4622 2.72205 93.4622 3.47543C93.3218 3.37459 93.2114 3.295 93.1002 3.21625C91.909 2.36995 90.5969 1.92409 89.1149 2.04784C88.7129 2.08118 88.3312 2.18327 87.9709 2.37161C86.9495 2.9054 86.9799 4.39923 87.8272 4.91593C88.2115 5.15011 88.6337 5.33054 89.0543 5.49805C89.9315 5.84765 90.8307 6.14517 91.6987 6.51477C92.6152 6.90521 93.3859 7.48858 93.8068 8.42239C94.3896 9.71496 94.3807 11.7255 92.9671 12.916C92.2621 13.5098 91.4358 13.8352 90.5311 13.9644C88.7943 14.2127 87.1383 13.9635 85.5713 13.1581C85.2283 12.9818 85.0745 12.7768 85.1031 12.3734C85.1469 11.7538 85.1145 11.1288 85.1145 10.4571L85.1137 10.4575Z" fill="url(#paint12_linear_1_2195)"/>
<path d="M38.9741 3.48798C38.8169 3.37672 38.6943 3.28922 38.5713 3.20213C37.4142 2.38541 36.1387 1.95539 34.704 2.05164C34.2519 2.08206 33.8157 2.17873 33.4235 2.4175C32.5365 2.95753 32.4362 4.2251 33.2545 4.86264C33.5351 5.0814 33.8752 5.241 34.2097 5.37392C35.1911 5.76436 36.1872 6.11813 37.1685 6.50857C37.4715 6.62899 37.7576 6.80192 38.0311 6.98068C38.9926 7.60905 39.5223 8.50244 39.6373 9.6325C39.7507 10.7451 39.5589 11.7764 38.7706 12.6348C38.1596 13.2998 37.3843 13.694 36.5091 13.8794C34.5232 14.3003 32.6347 14.0378 30.8611 13.0373C30.6871 12.9389 30.6066 12.8269 30.613 12.6123C30.6319 11.9889 30.6197 11.3643 30.6197 10.7401V10.4776C30.771 10.5876 30.886 10.673 31.0031 10.7563C32.2141 11.6168 33.5583 12.0689 35.0575 12.0322C35.5438 12.0201 36.017 11.9376 36.4716 11.7497C37.7707 11.213 37.7576 9.46999 36.7539 8.89246C36.1952 8.57078 35.5808 8.34035 34.9833 8.08741C34.1406 7.73114 33.2642 7.44238 32.4488 7.03402C31.3723 6.49482 30.7078 5.6056 30.5548 4.39886C30.2889 2.29416 31.3377 0.744482 33.4302 0.229035C35.3192 -0.236409 37.118 0.0548584 38.8039 1.02033C38.9239 1.08909 38.9787 1.16826 38.9766 1.31577C38.9669 1.96747 38.9724 2.61918 38.9724 3.2713V3.48798H38.9741Z" fill="url(#paint13_linear_1_2195)"/>
<path d="M47.7668 13.834H45.5256V0.263657H47.7668V13.834Z" fill="url(#paint14_linear_1_2195)"/>
<defs>
<linearGradient id="paint0_linear_1_2195" x1="4.82826" y1="0.24707" x2="4.82826" y2="13.87" gradientUnits="userSpaceOnUse">
<stop stop-color="#F4B515"/>
<stop offset="1" stop-color="#D29803"/>
</linearGradient>
<linearGradient id="paint1_linear_1_2195" x1="64.3944" y1="19.8635" x2="64.3944" y2="33.097" gradientUnits="userSpaceOnUse">
<stop stop-color="#F4B515"/>
<stop offset="1" stop-color="#D29803"/>
</linearGradient>
<linearGradient id="paint2_linear_1_2195" x1="94.8921" y1="19.8611" x2="94.8921" y2="33.0953" gradientUnits="userSpaceOnUse">
<stop stop-color="#F4B515"/>
<stop offset="1" stop-color="#D29803"/>
</linearGradient>
<linearGradient id="paint3_linear_1_2195" x1="78.6062" y1="19.8778" x2="78.6062" y2="33.0977" gradientUnits="userSpaceOnUse">
<stop stop-color="#F4B515"/>
<stop offset="1" stop-color="#D29803"/>
</linearGradient>
<linearGradient id="paint4_linear_1_2195" x1="103.291" y1="0" x2="103.291" y2="14.0666" gradientUnits="userSpaceOnUse">
<stop stop-color="#F4B515"/>
<stop offset="1" stop-color="#D29803"/>
</linearGradient>
<linearGradient id="paint5_linear_1_2195" x1="38.8775" y1="19.8635" x2="38.8775" y2="33.0956" gradientUnits="userSpaceOnUse">
<stop stop-color="#F4B515"/>
<stop offset="1" stop-color="#D29803"/>
</linearGradient>
<linearGradient id="paint6_linear_1_2195" x1="9.60783" y1="19.873" x2="9.60783" y2="33.098" gradientUnits="userSpaceOnUse">
<stop stop-color="#F4B515"/>
<stop offset="1" stop-color="#D29803"/>
</linearGradient>
<linearGradient id="paint7_linear_1_2195" x1="50.5905" y1="19.8778" x2="50.5905" y2="33.0973" gradientUnits="userSpaceOnUse">
<stop stop-color="#F4B515"/>
<stop offset="1" stop-color="#D29803"/>
</linearGradient>
<linearGradient id="paint8_linear_1_2195" x1="59.9513" y1="0.0356293" x2="59.9513" y2="14.0265" gradientUnits="userSpaceOnUse">
<stop stop-color="#F4B515"/>
<stop offset="1" stop-color="#D29803"/>
</linearGradient>
<linearGradient id="paint9_linear_1_2195" x1="23.4162" y1="19.8849" x2="23.4162" y2="33.0807" gradientUnits="userSpaceOnUse">
<stop stop-color="#F4B515"/>
<stop offset="1" stop-color="#D29803"/>
</linearGradient>
<linearGradient id="paint10_linear_1_2195" x1="19.9042" y1="0.256546" x2="19.9042" y2="14.0829" gradientUnits="userSpaceOnUse">
<stop stop-color="#F4B515"/>
<stop offset="1" stop-color="#D29803"/>
</linearGradient>
<linearGradient id="paint11_linear_1_2195" x1="75.7683" y1="0.261307" x2="75.7683" y2="13.8342" gradientUnits="userSpaceOnUse">
<stop stop-color="#F4B515"/>
<stop offset="1" stop-color="#D29803"/>
</linearGradient>
<linearGradient id="paint12_linear_1_2195" x1="89.5699" y1="0.00502014" x2="89.5699" y2="14.0565" gradientUnits="userSpaceOnUse">
<stop stop-color="#F4B515"/>
<stop offset="1" stop-color="#D29803"/>
</linearGradient>
<linearGradient id="paint13_linear_1_2195" x1="35.0907" y1="0.0118561" x2="35.0907" y2="14.0722" gradientUnits="userSpaceOnUse">
<stop stop-color="#F4B515"/>
<stop offset="1" stop-color="#D29803"/>
</linearGradient>
<linearGradient id="paint14_linear_1_2195" x1="46.6462" y1="0.263657" x2="46.6462" y2="13.834" gradientUnits="userSpaceOnUse">
<stop stop-color="#F4B515"/>
<stop offset="1" stop-color="#D29803"/>
</linearGradient>
</defs>
</svg>
