<svg width="93" height="21" viewBox="0 0 93 21" fill="none" xmlns="http://www.w3.org/2000/svg">
<path d="M0.350983 1.19643C4.67173 1.21453 8.99247 1.25275 13.3112 1.23062C14.0897 1.2266 14.4477 1.40764 14.5443 2.2223C14.6629 3.218 14.9224 4.1956 14.9707 5.27378C13.7216 3.90393 12.7902 2.17201 10.7264 2.04328C9.27208 1.95276 7.80769 2.02517 6.28698 2.02517V10.2141C7.74935 10.0692 9.21575 10.0391 10.6158 9.72125C11.0985 9.61062 11.4646 8.81003 11.7945 8.27094C11.9776 7.97324 11.9756 7.56088 12.058 7.20081C12.1526 7.21691 12.2471 7.233 12.3417 7.24909V13.8569C12.2552 13.875 12.1707 13.8931 12.0842 13.9112C11.9937 13.5894 11.881 13.2696 11.8166 12.9417C11.6296 11.9762 11.0704 11.3546 10.0968 11.2359C8.87379 11.0871 7.64073 11.0328 6.22261 10.9221C6.22261 11.6322 6.21054 12.2155 6.22462 12.7989C6.26284 14.4383 6.25681 16.0797 6.36945 17.715C6.47204 19.2036 6.91457 19.6059 8.38902 19.8633C8.70282 19.9176 9.01661 19.9659 9.33041 20.0162C9.32639 20.1108 9.32236 20.2033 9.31834 20.2978L0.350983 20.507V19.9036C2.29813 19.8794 2.78291 19.4369 2.93377 17.538C2.95188 17.3047 2.94987 17.0693 2.94987 16.836C2.94987 12.7908 2.95992 8.74566 2.94182 4.7005C2.92975 2.36713 2.63406 2.03925 0.350983 1.59873V1.19643Z" fill="url(#paint0_linear_1_2177)"/>
<path d="M88.0171 7.08214C87.7214 4.85337 88.9283 2.32288 85.9734 0.995278C87.49 0.661366 88.9987 0.279177 90.5274 0.0196907C91.2134 -0.0969774 91.0625 0.554755 91.0645 0.953036C91.0746 4.06888 91.0705 7.18473 91.0705 10.3006C91.0705 12.7124 91.0705 15.1242 91.0766 17.536C91.0786 18.7268 91.1591 19.8714 92.7421 20.0082C92.7944 20.0122 92.8326 20.1631 92.9473 20.3743H88.2303C88.1458 19.9619 88.0412 19.457 87.9125 18.8314C87.5987 19.0728 87.3432 19.2619 87.0958 19.457C84.5914 21.4384 81.0129 20.8067 79.3313 18.0892C76.8028 13.9998 79.1382 8.14623 83.807 7.12237C85.0802 6.84277 86.4662 7.08013 88.0191 7.08013L88.0171 7.08214ZM87.9708 14.4865C87.9708 14.4865 87.9648 14.4865 87.9627 14.4865C87.9627 13.4466 87.9728 12.4086 87.9567 11.3687C87.9527 11.0348 87.8923 10.7009 87.8461 10.371C87.6288 8.8382 86.786 7.83043 85.5751 7.6514C83.9618 7.41203 82.6121 8.00342 82.0247 9.47183C80.9446 12.1793 81.0954 14.8687 82.7227 17.3389C83.6943 18.8133 85.7159 19.3142 87.1843 18.6242C87.7133 18.3748 88.0291 18.065 87.9869 17.4033C87.9265 16.4357 87.9708 15.4601 87.9708 14.4886V14.4865Z" fill="url(#paint1_linear_1_2177)"/>
<path d="M38.9299 0.991265C40.3279 0.671433 41.7259 0.351601 43.1239 0.0337808C43.8742 -0.137198 43.8601 0.371716 43.8601 0.86655C43.8601 3.07721 43.8601 5.28988 43.8601 7.50054C43.8601 7.82038 43.8601 8.14222 43.8601 8.4178C44.9061 7.90888 45.8294 7.27324 46.8513 6.99766C49.2289 6.35599 51.5421 7.48646 52.6646 9.65287C54.4005 12.996 53.5074 19.4973 47.5694 20.3904C46.1955 20.5976 44.713 20.3039 43.317 20.0404C42.5446 19.8955 41.9311 19.7044 41.4021 20.4427C41.3055 20.5774 41.0903 20.6297 40.7704 20.8068V19.5958C40.7704 14.8044 40.7704 10.0129 40.7704 5.21948C40.7704 3.58814 41.1144 1.79587 38.6684 1.26684C38.7549 1.17431 38.8414 1.08178 38.9279 0.989253L38.9299 0.991265ZM43.8601 13.1046C43.7045 13.1046 43.9776 16.8925 44.0311 17.3127C44.2142 18.7369 45.1113 19.5656 46.4208 19.7929C47.674 20.0102 48.9875 19.3906 49.6714 18.2582C51.0171 16.0314 50.6249 11.7469 48.901 9.80575C47.8128 8.58073 46.1251 8.19251 44.6989 8.81206C44.1196 9.0635 43.7998 9.39137 43.844 10.0934C43.9084 11.0951 43.8601 12.1029 43.8601 13.1067V13.1046Z" fill="url(#paint2_linear_1_2177)"/>
<path d="M30.3206 20.3562H23.3507C23.5901 20.1409 23.6907 19.97 23.8033 19.9619C25.0565 19.8815 25.316 19.0346 25.322 18.0067C25.3361 15.4943 25.322 12.9819 25.3441 10.4716C25.3522 9.44569 24.9499 8.73964 23.9683 8.3836C23.7953 8.32125 23.6484 8.18446 23.226 7.91291C24.978 7.51664 26.4766 7.1606 27.9853 6.86692C28.112 6.84278 28.4218 7.21692 28.466 7.44221C28.5465 7.84653 28.4882 8.27699 28.4882 8.78792C29.341 8.26492 30.027 7.69566 30.8135 7.39997C31.6664 7.07813 32.6158 6.85887 33.523 6.86289C35.3696 6.87295 36.5926 7.92498 36.7615 9.77155C36.9546 11.8977 36.9003 14.048 36.9486 16.1883C36.9607 16.7576 36.9446 17.3268 36.9647 17.8961C37.017 19.3947 37.0975 19.4892 38.5659 19.978C38.6443 20.0042 38.6946 20.1148 38.8817 20.326H31.8836C31.9983 20.153 32.0425 20.0122 32.1008 20.0062C33.5813 19.8734 33.8026 18.8516 33.8006 17.6487C33.7966 15.605 33.8307 13.5633 33.7986 11.5196C33.7805 10.3911 33.6115 9.25057 32.4026 8.73361C31.1454 8.19653 29.9646 8.60286 28.8884 9.29482C28.6692 9.43563 28.5123 9.83994 28.5083 10.1256C28.4841 12.7043 28.5042 15.2831 28.5042 17.8619C28.5042 18.9743 28.7617 19.8734 30.1034 19.9579C30.1597 19.9619 30.2281 20.0182 30.2623 20.0685C30.2945 20.1168 30.2905 20.1912 30.3227 20.3521L30.3206 20.3562Z" fill="url(#paint3_linear_1_2177)"/>
<path d="M62.1028 6.75023C66.2183 6.74822 68.8414 9.49394 68.8554 13.8207C68.8675 17.709 65.9649 20.678 62.1209 20.7041C57.9047 20.7343 55.2757 17.9705 55.2857 13.515C55.2938 9.61866 58.1823 6.75425 62.1028 6.75023ZM58.7154 12.8753C58.7154 13.2756 58.6852 13.6799 58.7214 14.0782C58.8803 15.8886 59.1237 17.6869 60.4272 19.0969C61.8292 20.6136 64.0801 20.2576 64.8364 18.3527C65.1744 17.5018 65.3433 16.5443 65.3916 15.6251C65.5143 13.3078 65.4117 10.9986 64.1545 8.93474C63.5189 7.88875 62.5815 7.29334 61.3042 7.46432C60.0571 7.63329 59.3389 8.43991 59.0775 9.60458C58.9813 10.0337 58.3693 12.8338 58.7154 12.8753Z" fill="url(#paint4_linear_1_2177)"/>
<path d="M69.9254 1.0516C71.6372 0.665389 73.1096 0.30935 74.6002 0.0418178C74.737 0.0176796 75.1332 0.554756 75.1393 0.83838C75.1875 2.74731 75.1654 4.65625 75.1654 6.56518C75.1654 9.94855 75.1654 13.3319 75.1654 16.7153C75.1654 18.3044 75.8373 19.5086 77.181 20.328H70.1065C70.2171 20.1631 70.2633 20.0222 70.3197 20.0182C71.8263 19.9056 72.0033 18.8495 72.0053 17.6647C72.0093 13.0081 72.0053 8.35342 72.0194 3.69675C72.0234 2.64271 71.6292 1.89242 70.6113 1.51023C70.4424 1.44586 70.3016 1.30706 69.9254 1.0516Z" fill="url(#paint5_linear_1_2177)"/>
<path d="M15.4596 7.92094C17.1352 7.55685 18.5654 7.25311 19.9916 6.93529C20.8002 6.75627 20.6815 7.32955 20.6815 7.78013C20.6876 10.6264 20.6835 13.4727 20.6856 16.319C20.6856 16.7535 20.6936 17.19 20.6976 17.6245C20.7057 18.8515 20.9229 19.9237 22.4678 20.0202C22.5261 20.0243 22.5744 20.161 22.7112 20.3521H15.6648C15.7795 20.1671 15.8197 20.0263 15.876 20.0202C17.3243 19.8432 17.5295 19.4148 17.5838 17.6869C17.6582 15.3776 17.5938 13.0664 17.62 10.7552C17.6341 9.59653 17.276 8.72756 16.0751 8.36749C15.9303 8.32525 15.8157 8.18445 15.4576 7.91892L15.4596 7.92094Z" fill="url(#paint6_linear_1_2177)"/>
<path d="M16.9641 2.55422C17.0405 1.51427 17.9256 0.824317 19.0722 0.914835C20.1483 0.999319 20.9147 1.816 20.8524 2.8117C20.792 3.81142 19.8365 4.59994 18.7664 4.53557C17.6581 4.46919 16.8856 3.62033 16.9641 2.55422Z" fill="url(#paint7_linear_1_2177)"/>
<defs>
<linearGradient id="paint0_linear_1_2177" x1="7.66085" y1="1.19643" x2="7.66085" y2="20.507" gradientUnits="userSpaceOnUse">
<stop stop-color="#F4B515"/>
<stop offset="1" stop-color="#D29803"/>
</linearGradient>
<linearGradient id="paint1_linear_1_2177" x1="85.6216" y1="0.00592041" x2="85.6216" y2="20.6143" gradientUnits="userSpaceOnUse">
<stop stop-color="#F4B515"/>
<stop offset="1" stop-color="#D29803"/>
</linearGradient>
<linearGradient id="paint2_linear_1_2177" x1="46.0605" y1="0" x2="46.0605" y2="20.8068" gradientUnits="userSpaceOnUse">
<stop stop-color="#F4B515"/>
<stop offset="1" stop-color="#D29803"/>
</linearGradient>
<linearGradient id="paint3_linear_1_2177" x1="31.0538" y1="6.86284" x2="31.0538" y2="20.3562" gradientUnits="userSpaceOnUse">
<stop stop-color="#F4B515"/>
<stop offset="1" stop-color="#D29803"/>
</linearGradient>
<linearGradient id="paint4_linear_1_2177" x1="62.0706" y1="6.75023" x2="62.0706" y2="20.7044" gradientUnits="userSpaceOnUse">
<stop stop-color="#F4B515"/>
<stop offset="1" stop-color="#D29803"/>
</linearGradient>
<linearGradient id="paint5_linear_1_2177" x1="73.5532" y1="0.0410309" x2="73.5532" y2="20.328" gradientUnits="userSpaceOnUse">
<stop stop-color="#F4B515"/>
<stop offset="1" stop-color="#D29803"/>
</linearGradient>
<linearGradient id="paint6_linear_1_2177" x1="19.0844" y1="6.90169" x2="19.0844" y2="20.3521" gradientUnits="userSpaceOnUse">
<stop stop-color="#F4B515"/>
<stop offset="1" stop-color="#D29803"/>
</linearGradient>
<linearGradient id="paint7_linear_1_2177" x1="18.9073" y1="0.906876" x2="18.9073" y2="4.53925" gradientUnits="userSpaceOnUse">
<stop stop-color="#F4B515"/>
<stop offset="1" stop-color="#D29803"/>
</linearGradient>
</defs>
</svg>
