<svg width="86" height="37" viewBox="0 0 86 37" fill="none" xmlns="http://www.w3.org/2000/svg">
<path d="M4.2634 36.6213C4.25083 36.6088 4.2403 36.5894 4.22536 36.585C1.74062 35.8589 0.729333 34.3553 0.921538 31.7501C1.12053 29.056 2.38311 26.8806 4.22434 25.0077C4.90012 24.3203 5.71207 23.7666 6.45813 23.148C6.6809 22.9633 6.87039 22.9997 7.12406 23.1263C8.3554 23.7411 9.59998 24.3291 10.8429 24.9201C11.0612 25.024 11.2935 25.0983 11.5638 25.1099C11.4507 25.0213 11.34 24.9296 11.2246 24.8444C6.75935 21.5535 4.24404 17.1219 3.51087 11.6603C3.21 9.4184 3.25211 7.18767 3.93977 5.0065C4.42775 3.45847 5.21457 2.09613 6.5393 1.10689C8.12482 -0.0768826 9.85161 -0.33353 11.6877 0.445239C14.1878 1.50544 15.705 3.47782 16.6987 5.91801C17.3911 7.61881 17.7493 9.4038 17.8213 11.2248C18.0896 18.0035 16.6871 24.4048 13.2858 30.3145C12.0857 32.3996 10.6113 34.2911 8.47935 35.5024C7.57809 36.0144 6.52266 36.2567 5.53752 36.6213H4.2634Z" fill="url(#paint0_linear_1_2119)"/>
<path d="M35.383 13.67H37.8338V15.9818C39.0576 14.2651 40.619 13.2752 42.7462 13.2952C44.9532 13.3159 46.3913 14.4216 47.2101 16.4527C47.4104 16.1556 47.5914 15.8759 47.7833 15.6036C49.5729 13.0677 52.6023 12.9027 54.6551 13.6927C56.1007 14.2491 56.8502 15.4213 57.2261 16.8509C57.3867 17.4616 57.5212 18.1002 57.5267 18.7272C57.5552 22.2218 57.5402 25.7168 57.5402 29.2538H55.0535C55.0535 29.0505 55.0541 28.8448 55.0535 28.6394C55.0429 25.5501 55.0416 22.4605 55.0117 19.3712C55.0069 18.865 54.9152 18.3507 54.7964 17.8561C54.2334 15.5079 51.5337 14.5665 49.6211 16.0704C48.2251 17.1683 47.7126 18.6994 47.7042 20.4188C47.6909 23.1554 47.7004 25.892 47.7001 28.6285C47.7001 28.8217 47.7001 29.0152 47.7001 29.2525H45.2068C45.2068 29.0155 45.2079 28.7915 45.2068 28.5677C45.1885 25.4082 45.177 22.2483 45.1427 19.0888C45.1382 18.6892 45.0415 18.2839 44.9399 17.8934C44.6061 16.6099 43.8461 15.7208 42.4949 15.474C41.1067 15.2204 39.9005 15.5527 38.985 16.6954C38.0851 17.8188 37.8463 19.138 37.8429 20.5231C37.8361 23.2243 37.8409 25.9256 37.8409 28.6268C37.8409 28.8332 37.8409 29.0393 37.8409 29.2684H35.3826V13.67H35.383Z" fill="url(#paint1_linear_1_2119)"/>
<path d="M14.072 33.0612C14.1664 31.6368 14.5236 30.2849 15.0551 28.9956C16.7078 24.9867 18.3572 20.975 20.1108 17.0099C21.0437 14.9003 22.3867 13.0203 24.1149 11.4607C24.6046 11.0187 25.1795 10.6219 25.7839 10.3642C27.0686 9.81662 28.0035 10.4654 28.0466 11.8593C28.1074 13.8239 27.4442 15.6034 26.5898 17.3232C25.2192 20.0822 23.3603 22.4996 21.281 24.7551C21.0365 25.0206 20.9425 25.281 20.9279 25.6408C20.7924 28.9623 19.7607 31.9396 17.3962 34.3536C17.005 34.7532 16.4589 35.0516 15.9295 35.2543C15.2048 35.5323 14.5807 35.1928 14.3389 34.4527C14.1932 34.0073 14.1576 33.5263 14.0723 33.0609L14.072 33.0612Z" fill="url(#paint2_linear_1_2119)"/>
<path d="M75.2584 29.2675H72.7862V13.6819H75.2374V16.0909C75.2757 16.1062 75.3141 16.1214 75.3525 16.1371C75.469 15.9799 75.5885 15.8247 75.7012 15.6648C77.5224 13.0766 80.6249 12.8821 82.657 13.6908C84.5192 14.4318 85.2741 16.0145 85.5808 17.8613C85.6844 18.4846 85.7183 19.1252 85.721 19.7583C85.7353 22.7766 85.7282 25.7953 85.7268 28.8136C85.7268 28.9521 85.7098 29.0903 85.6986 29.2617H83.2387C83.2387 29.0523 83.2387 28.8486 83.2387 28.6449C83.2387 25.9616 83.2522 23.2787 83.2295 20.5958C83.2234 19.8584 83.1697 19.1102 83.0319 18.3871C82.4797 15.4883 79.3202 14.3853 77.0334 16.2793C75.8914 17.2251 75.3053 18.4706 75.2856 19.9345C75.2469 22.8289 75.2638 25.724 75.2581 28.6187C75.2577 28.8258 75.2581 29.0333 75.2581 29.2675H75.2584Z" fill="url(#paint3_linear_1_2119)"/>
<path d="M60.3106 26.2343C61.3236 26.6135 62.2798 27.1105 63.2945 27.308C64.1306 27.471 65.0729 27.4251 65.9022 27.2133C67.3831 26.8351 67.8052 25.0732 66.7349 23.973C66.3742 23.6023 65.9056 23.314 65.4441 23.0669C64.6206 22.6259 63.7472 22.2769 62.9257 21.8319C60.9558 20.7649 60.1004 19.2569 60.3524 17.3874C60.6172 15.4218 62.0336 13.9216 64.1299 13.448C65.7066 13.0919 67.2531 13.2423 68.7632 13.8259C69.0766 13.9471 69.1955 14.1151 69.1829 14.4499C69.1592 15.0945 69.1761 15.7406 69.1761 16.3143C68.2287 16.0261 67.341 15.6635 66.418 15.5063C65.7816 15.398 65.076 15.4904 64.4382 15.6445C63.6059 15.8455 63.0768 16.4368 62.9342 17.3103C62.7963 18.156 63.083 18.8617 63.7689 19.3499C64.2678 19.705 64.8277 19.9803 65.3786 20.2557C66.0723 20.6026 66.796 20.8912 67.4864 21.2449C69.2271 22.1367 70.0686 23.5602 69.8716 25.519C69.6852 27.3756 68.6393 28.6137 66.8989 29.2112C64.8457 29.9163 62.7987 29.7947 60.7897 28.9691C60.4339 28.8228 60.2797 28.6177 60.3011 28.2144C60.3371 27.5294 60.3109 26.8409 60.3109 26.2343H60.3106Z" fill="url(#paint4_linear_1_2119)"/>
<defs>
<linearGradient id="paint0_linear_1_2119" x1="9.37606" y1="0" x2="9.37606" y2="36.6213" gradientUnits="userSpaceOnUse">
<stop stop-color="#F4B515"/>
<stop offset="1" stop-color="#D29803"/>
</linearGradient>
<linearGradient id="paint1_linear_1_2119" x1="46.4634" y1="13.2735" x2="46.4634" y2="29.2684" gradientUnits="userSpaceOnUse">
<stop stop-color="#F4B515"/>
<stop offset="1" stop-color="#D29803"/>
</linearGradient>
<linearGradient id="paint2_linear_1_2119" x1="21.0612" y1="10.1704" x2="21.0612" y2="35.3508" gradientUnits="userSpaceOnUse">
<stop stop-color="#F4B515"/>
<stop offset="1" stop-color="#D29803"/>
</linearGradient>
<linearGradient id="paint3_linear_1_2119" x1="79.258" y1="13.2679" x2="79.258" y2="29.2675" gradientUnits="userSpaceOnUse">
<stop stop-color="#F4B515"/>
<stop offset="1" stop-color="#D29803"/>
</linearGradient>
<linearGradient id="paint4_linear_1_2119" x1="65.0994" y1="13.2569" x2="65.0994" y2="29.6722" gradientUnits="userSpaceOnUse">
<stop stop-color="#F4B515"/>
<stop offset="1" stop-color="#D29803"/>
</linearGradient>
</defs>
</svg>
