<svg width="34" height="34" viewBox="0 0 34 34" fill="none" xmlns="http://www.w3.org/2000/svg">
<path d="M18.7133 0.333344C20.5883 0.338344 21.54 0.348344 22.3617 0.371677L22.685 0.383343C23.0583 0.396677 23.4267 0.413343 23.8717 0.433343C25.645 0.516677 26.855 0.796677 27.9167 1.20834C29.0167 1.63168 29.9433 2.20501 30.87 3.13001C31.7178 3.9629 32.3736 4.9708 32.7917 6.08334C33.2033 7.14501 33.4833 8.35501 33.5667 10.13C33.5867 10.5733 33.6033 10.9417 33.6167 11.3167L33.6267 11.64C33.6517 12.46 33.6617 13.4117 33.665 15.2867L33.6667 16.53V18.7133C33.6707 19.929 33.658 21.1447 33.6283 22.36L33.6183 22.6833C33.605 23.0583 33.5883 23.4267 33.5683 23.87C33.485 25.645 33.2017 26.8533 32.7917 27.9167C32.3736 29.0292 31.7178 30.0371 30.87 30.87C30.0371 31.7178 29.0292 32.3736 27.9167 32.7917C26.855 33.2033 25.645 33.4833 23.8717 33.5667L22.685 33.6167L22.3617 33.6267C21.54 33.65 20.5883 33.6617 18.7133 33.665L17.47 33.6667H15.2883C14.0721 33.671 12.8559 33.6582 11.64 33.6283L11.3167 33.6183C10.921 33.6034 10.5255 33.5861 10.13 33.5667C8.35668 33.4833 7.14668 33.2033 6.08334 32.7917C4.9714 32.3734 3.96408 31.7176 3.13168 30.87C2.28325 30.0373 1.62686 29.0294 1.20835 27.9167C0.796679 26.855 0.516679 25.645 0.433345 23.87L0.383345 22.6833L0.375012 22.36C0.344289 21.1447 0.330399 19.929 0.333345 18.7133V15.2867C0.328732 14.071 0.340956 12.8553 0.370012 11.64L0.381679 11.3167C0.395012 10.9417 0.411679 10.5733 0.431679 10.13C0.515012 8.35501 0.795012 7.14668 1.20668 6.08334C1.62617 4.97034 2.28372 3.9624 3.13335 3.13001C3.96527 2.28259 4.97199 1.6268 6.08334 1.20834C7.14668 0.796677 8.35501 0.516677 10.13 0.433343C10.5733 0.413343 10.9433 0.396677 11.3167 0.383343L11.64 0.373343C12.8553 0.343731 14.071 0.330952 15.2867 0.33501L18.7133 0.333344ZM17 8.66668C14.7899 8.66668 12.6703 9.54465 11.1075 11.1075C9.54465 12.6703 8.66668 14.7899 8.66668 17C8.66668 19.2101 9.54465 21.3298 11.1075 22.8926C12.6703 24.4554 14.7899 25.3333 17 25.3333C19.2101 25.3333 21.3298 24.4554 22.8926 22.8926C24.4554 21.3298 25.3333 19.2101 25.3333 17C25.3333 14.7899 24.4554 12.6703 22.8926 11.1075C21.3298 9.54465 19.2101 8.66668 17 8.66668ZM17 12C17.6566 11.9999 18.3068 12.1291 18.9135 12.3803C19.5202 12.6315 20.0714 12.9997 20.5358 13.4639C21.0002 13.9281 21.3685 14.4792 21.6199 15.0858C21.8713 15.6924 22.0007 16.3426 22.0008 16.9992C22.001 17.6558 21.8717 18.306 21.6206 18.9127C21.3694 19.5193 21.0012 20.0706 20.537 20.535C20.0728 20.9993 19.5216 21.3677 18.915 21.6191C18.3084 21.8705 17.6583 21.9999 17.0017 22C15.6756 22 14.4038 21.4732 13.4661 20.5355C12.5285 19.5979 12.0017 18.3261 12.0017 17C12.0017 15.6739 12.5285 14.4022 13.4661 13.4645C14.4038 12.5268 15.6756 12 17.0017 12M25.7517 6.16668C25.1991 6.16668 24.6692 6.38617 24.2785 6.77687C23.8878 7.16757 23.6683 7.69748 23.6683 8.25001C23.6683 8.80254 23.8878 9.33245 24.2785 9.72315C24.6692 10.1138 25.1991 10.3333 25.7517 10.3333C26.3042 10.3333 26.8341 10.1138 27.2248 9.72315C27.6155 9.33245 27.835 8.80254 27.835 8.25001C27.835 7.69748 27.6155 7.16757 27.2248 6.77687C26.8341 6.38617 26.3042 6.16668 25.7517 6.16668Z" fill="url(#paint0_linear_1_3852)"/>
<defs>
<linearGradient id="paint0_linear_1_3852" x1="0.332397" y1="17.0004" x2="33.6674" y2="17.0004" gradientUnits="userSpaceOnUse">
<stop stop-color="#FFB31E"/>
<stop offset="0.36" stop-color="#FFB31E"/>
<stop offset="0.71" stop-color="#FFD074"/>
<stop offset="1" stop-color="#B57A05"/>
</linearGradient>
</defs>
</svg>
