<svg width="19" height="18" viewBox="0 0 19 18" fill="none" xmlns="http://www.w3.org/2000/svg">
<path d="M17.9962 16.2538L14.75 13.0338C16.0101 11.4626 16.6203 9.46839 16.4552 7.46114C16.2901 5.45389 15.3622 3.58618 13.8623 2.24206C12.3624 0.897943 10.4046 0.179572 8.3913 0.234662C6.37803 0.289752 4.46237 1.11412 3.03824 2.53825C1.61411 3.96238 0.789745 5.87803 0.734654 7.89131C0.679564 9.90458 1.39794 11.8624 2.74206 13.3623C4.08618 14.8622 5.95388 15.7901 7.96113 15.9552C9.96838 16.1203 11.9626 15.5101 13.5337 14.25L16.7537 17.47C16.8351 17.552 16.9319 17.6171 17.0385 17.6615C17.1451 17.706 17.2595 17.7288 17.375 17.7288C17.4905 17.7288 17.6049 17.706 17.7115 17.6615C17.8181 17.6171 17.9149 17.552 17.9962 17.47C18.154 17.3068 18.2421 17.0888 18.2421 16.8619C18.2421 16.635 18.154 16.4169 17.9962 16.2538ZM8.62499 14.25C7.41358 14.25 6.22938 13.8908 5.22213 13.2178C4.21487 12.5447 3.42982 11.5881 2.96623 10.4689C2.50264 9.34974 2.38135 8.11821 2.61768 6.93007C2.85402 5.74194 3.43737 4.65057 4.29396 3.79397C5.15056 2.93737 6.24193 2.35402 7.43007 2.11769C8.6182 1.88136 9.84973 2.00265 10.9689 2.46624C12.0881 2.92982 13.0447 3.71488 13.7177 4.72213C14.3908 5.72938 14.75 6.91359 14.75 8.125C14.75 9.74945 14.1047 11.3074 12.956 12.456C11.8074 13.6047 10.2494 14.25 8.62499 14.25Z" fill="#6C737F"/>
</svg>
