<svg width="34" height="34" viewBox="0 0 34 34" fill="none" xmlns="http://www.w3.org/2000/svg">
<path d="M17 0.333344C7.80004 0.333344 0.333374 7.80001 0.333374 17C0.333374 26.2 7.80004 33.6667 17 33.6667C26.2 33.6667 33.6667 26.2 33.6667 17C33.6667 7.80001 26.2 0.333344 17 0.333344ZM24.7334 11.6667C24.4834 14.3 23.4 20.7 22.85 23.65C22.6167 24.9 22.15 25.3167 21.7167 25.3667C20.75 25.45 20.0167 24.7333 19.0834 24.1167C17.6167 23.15 16.7834 22.55 15.3667 21.6167C13.7167 20.5333 14.7834 19.9333 15.7334 18.9667C15.9834 18.7167 20.25 14.8333 20.3334 14.4833C20.3449 14.4303 20.3434 14.3753 20.3289 14.323C20.3144 14.2707 20.2873 14.2228 20.25 14.1833C20.15 14.1 20.0167 14.1333 19.9 14.15C19.75 14.1833 17.4167 15.7333 12.8667 18.8C12.2 19.25 11.6 19.4833 11.0667 19.4667C10.4667 19.45 9.33337 19.1333 8.48337 18.85C7.43337 18.5167 6.61671 18.3333 6.68337 17.75C6.71671 17.45 7.13337 17.15 7.91671 16.8333C12.7834 14.7167 16.0167 13.3167 17.6334 12.65C22.2667 10.7167 23.2167 10.3833 23.85 10.3833C23.9834 10.3833 24.3 10.4167 24.5 10.5833C24.6667 10.7167 24.7167 10.9 24.7334 11.0333C24.7167 11.1333 24.75 11.4333 24.7334 11.6667Z" fill="url(#paint0_linear_1_3854)"/>
<defs>
<linearGradient id="paint0_linear_1_3854" x1="0.333374" y1="17" x2="33.6667" y2="17" gradientUnits="userSpaceOnUse">
<stop stop-color="#FFB31E"/>
<stop offset="0.36" stop-color="#FFB31E"/>
<stop offset="0.71" stop-color="#FFD074"/>
<stop offset="1" stop-color="#B57A05"/>
</linearGradient>
</defs>
</svg>
