<svg width="84" height="15" viewBox="0 0 84 15" fill="none" xmlns="http://www.w3.org/2000/svg">
<path fill-rule="evenodd" clip-rule="evenodd" d="M9.23623 3.41006L7.51752 0.41823C7.1984 -0.137276 6.39792 -0.139935 6.07512 0.41344L4.2615 3.5225C4.02128 3.9343 3.61621 4.22352 3.14873 4.31702L0.670627 4.81264C0.0288075 4.941 -0.221283 5.72524 0.227733 6.20147L2.02009 8.10245C2.40336 8.50895 2.55746 9.08044 2.43051 9.62452L1.61923 13.1014C1.45246 13.8162 2.22421 14.3819 2.8556 14.0077L5.95078 12.1735C6.47469 11.863 7.12622 11.863 7.65012 12.1735L10.7453 14.0077C11.3767 14.3819 12.1484 13.8162 11.9817 13.1014L11.1633 9.59407C11.0403 9.06685 11.181 8.51272 11.5407 8.10808L13.3352 6.0892C13.7628 5.60817 13.5069 4.84463 12.8758 4.71841L10.3545 4.21416C9.88327 4.1199 9.47563 3.8268 9.23623 3.41006ZM26.7827 3.41006L25.064 0.41823C24.7448 -0.137276 23.9444 -0.139935 23.6216 0.41344L21.8079 3.5225C21.5677 3.9343 21.1627 4.22352 20.6952 4.31702L18.2171 4.81264C17.5753 4.941 17.3252 5.72524 17.7742 6.20147L19.5665 8.10245C19.9498 8.50895 20.1039 9.08044 19.977 9.62452L19.1657 13.1014C18.9989 13.8162 19.7707 14.3819 20.4021 14.0077L23.4972 12.1735C24.0211 11.8631 24.6727 11.8631 25.1966 12.1735L28.2918 14.0077C28.9231 14.3819 29.6949 13.8162 29.5281 13.1014L28.7097 9.59407C28.5867 9.06685 28.7274 8.51272 29.0871 8.10809L30.8817 6.0892C31.3093 5.60817 31.0534 4.84463 30.4223 4.71841L27.901 4.21416C27.4297 4.1199 27.0221 3.8268 26.7827 3.41006ZM42.6104 0.41823L44.3291 3.41006C44.5685 3.8268 44.9762 4.1199 45.4474 4.21416L47.9687 4.71841C48.5998 4.84463 48.8557 5.60817 48.4281 6.0892L46.6336 8.10808C46.2739 8.51272 46.1332 9.06685 46.2562 9.59407L47.0746 13.1014C47.2413 13.8162 46.4696 14.3819 45.8382 14.0077L42.743 12.1735C42.2191 11.863 41.5676 11.863 41.0437 12.1735L37.9485 14.0077C37.3171 14.3819 36.5454 13.8162 36.7121 13.1014L37.5234 9.62452C37.6504 9.08044 37.4963 8.50895 37.113 8.10245L35.3206 6.20147C34.8716 5.72524 35.1217 4.941 35.7635 4.81264L38.2416 4.31702C38.7091 4.22352 39.1142 3.9343 39.3544 3.5225L41.168 0.41344C41.4908 -0.139935 42.2913 -0.137276 42.6104 0.41823ZM61.8756 3.41006L60.1569 0.41823C59.8377 -0.137276 59.0373 -0.139935 58.7145 0.41344L56.9008 3.5225C56.6606 3.9343 56.2556 4.22352 55.7881 4.31702L53.31 4.81264C52.6682 4.941 52.4181 5.72524 52.8671 6.20147L54.6594 8.10245C55.0427 8.50895 55.1968 9.08044 55.0699 9.62452L54.2586 13.1014C54.0918 13.8162 54.8636 14.3819 55.4949 14.0077L58.5901 12.1735C59.114 11.8631 59.7656 11.8631 60.2895 12.1735L63.3846 14.0077C64.016 14.3819 64.7878 13.8162 64.621 13.1014L63.8026 9.59407C63.6796 9.06685 63.8203 8.51272 64.18 8.10809L65.9746 6.0892C66.4022 5.60817 66.1463 4.84463 65.5152 4.71841L62.9939 4.21416C62.5226 4.1199 62.115 3.8268 61.8756 3.41006ZM77.7033 0.41823L79.422 3.41006C79.6614 3.8268 80.0691 4.1199 80.5403 4.21416L83.0616 4.71841C83.6927 4.84463 83.9486 5.60817 83.521 6.0892L81.7265 8.10809C81.3668 8.51272 81.2261 9.06685 81.3491 9.59407L82.1675 13.1014C82.3342 13.8162 81.5625 14.3819 80.9311 14.0077L77.8359 12.1735C77.312 11.8631 76.6605 11.8631 76.1366 12.1735L73.0414 14.0077C72.41 14.3819 71.6383 13.8162 71.805 13.1014L72.6163 9.62452C72.7432 9.08044 72.5891 8.50895 72.2059 8.10245L70.4135 6.20147C69.9645 5.72524 70.2146 4.941 70.8564 4.81264L73.3345 4.31702C73.802 4.22352 74.2071 3.9343 74.4473 3.5225L76.2609 0.41344C76.5837 -0.139935 77.3842 -0.137276 77.7033 0.41823Z" fill="#D9D9D9"/>
<path fill-rule="evenodd" clip-rule="evenodd" d="M9.23623 3.41006L7.51752 0.41823C7.1984 -0.137276 6.39792 -0.139935 6.07512 0.41344L4.2615 3.5225C4.02128 3.9343 3.61621 4.22352 3.14873 4.31702L0.670627 4.81264C0.0288075 4.941 -0.221283 5.72524 0.227733 6.20147L2.02009 8.10245C2.40336 8.50895 2.55746 9.08044 2.43051 9.62452L1.61923 13.1014C1.45246 13.8162 2.22421 14.3819 2.8556 14.0077L5.95078 12.1735C6.47469 11.863 7.12622 11.863 7.65012 12.1735L10.7453 14.0077C11.3767 14.3819 12.1484 13.8162 11.9817 13.1014L11.1633 9.59407C11.0403 9.06685 11.181 8.51272 11.5407 8.10808L13.3352 6.0892C13.7628 5.60817 13.5069 4.84463 12.8758 4.71841L10.3545 4.21416C9.88327 4.1199 9.47563 3.8268 9.23623 3.41006ZM26.7827 3.41006L25.064 0.41823C24.7448 -0.137276 23.9444 -0.139935 23.6216 0.41344L21.8079 3.5225C21.5677 3.9343 21.1627 4.22352 20.6952 4.31702L18.2171 4.81264C17.5753 4.941 17.3252 5.72524 17.7742 6.20147L19.5665 8.10245C19.9498 8.50895 20.1039 9.08044 19.977 9.62452L19.1657 13.1014C18.9989 13.8162 19.7707 14.3819 20.4021 14.0077L23.4972 12.1735C24.0211 11.8631 24.6727 11.8631 25.1966 12.1735L28.2918 14.0077C28.9231 14.3819 29.6949 13.8162 29.5281 13.1014L28.7097 9.59407C28.5867 9.06685 28.7274 8.51272 29.0871 8.10809L30.8817 6.0892C31.3093 5.60817 31.0534 4.84463 30.4223 4.71841L27.901 4.21416C27.4297 4.1199 27.0221 3.8268 26.7827 3.41006ZM42.6104 0.41823L44.3291 3.41006C44.5685 3.8268 44.9762 4.1199 45.4474 4.21416L47.9687 4.71841C48.5998 4.84463 48.8557 5.60817 48.4281 6.0892L46.6336 8.10808C46.2739 8.51272 46.1332 9.06685 46.2562 9.59407L47.0746 13.1014C47.2413 13.8162 46.4696 14.3819 45.8382 14.0077L42.743 12.1735C42.2191 11.863 41.5676 11.863 41.0437 12.1735L37.9485 14.0077C37.3171 14.3819 36.5454 13.8162 36.7121 13.1014L37.5234 9.62452C37.6504 9.08044 37.4963 8.50895 37.113 8.10245L35.3206 6.20147C34.8716 5.72524 35.1217 4.941 35.7635 4.81264L38.2416 4.31702C38.7091 4.22352 39.1142 3.9343 39.3544 3.5225L41.168 0.41344C41.4908 -0.139935 42.2913 -0.137276 42.6104 0.41823ZM61.8756 3.41006L60.1569 0.41823C59.8377 -0.137276 59.0373 -0.139935 58.7145 0.41344L56.9008 3.5225C56.6606 3.9343 56.2556 4.22352 55.7881 4.31702L53.31 4.81264C52.6682 4.941 52.4181 5.72524 52.8671 6.20147L54.6594 8.10245C55.0427 8.50895 55.1968 9.08044 55.0699 9.62452L54.2586 13.1014C54.0918 13.8162 54.8636 14.3819 55.4949 14.0077L58.5901 12.1735C59.114 11.8631 59.7656 11.8631 60.2895 12.1735L63.3846 14.0077C64.016 14.3819 64.7878 13.8162 64.621 13.1014L63.8026 9.59407C63.6796 9.06685 63.8203 8.51272 64.18 8.10809L65.9746 6.0892C66.4022 5.60817 66.1463 4.84463 65.5152 4.71841L62.9939 4.21416C62.5226 4.1199 62.115 3.8268 61.8756 3.41006ZM77.7033 0.41823L79.422 3.41006C79.6614 3.8268 80.0691 4.1199 80.5403 4.21416L83.0616 4.71841C83.6927 4.84463 83.9486 5.60817 83.521 6.0892L81.7265 8.10809C81.3668 8.51272 81.2261 9.06685 81.3491 9.59407L82.1675 13.1014C82.3342 13.8162 81.5625 14.3819 80.9311 14.0077L77.8359 12.1735C77.312 11.8631 76.6605 11.8631 76.1366 12.1735L73.0414 14.0077C72.41 14.3819 71.6383 13.8162 71.805 13.1014L72.6163 9.62452C72.7432 9.08044 72.5891 8.50895 72.2059 8.10245L70.4135 6.20147C69.9645 5.72524 70.2146 4.941 70.8564 4.81264L73.3345 4.31702C73.802 4.22352 74.2071 3.9343 74.4473 3.5225L76.2609 0.41344C76.5837 -0.139935 77.3842 -0.137276 77.7033 0.41823Z" fill="url(#paint0_linear_1_2591)"/>
<defs>
<linearGradient id="paint0_linear_1_2591" x1="0" y1="7.0633" x2="83.7323" y2="7.0633" gradientUnits="userSpaceOnUse">
<stop stop-color="#FFB31E"/>
<stop offset="0.2" stop-color="#B57A05"/>
<stop offset="0.495" stop-color="#FFB31E"/>
<stop offset="0.67" stop-color="#FFD074"/>
<stop offset="0.85" stop-color="#B56F05"/>
<stop offset="1" stop-color="#FFB31E"/>
</linearGradient>
</defs>
</svg>
