<svg width="113" height="15" viewBox="0 0 113 15" fill="none" xmlns="http://www.w3.org/2000/svg">
<path d="M112.534 7.74829C112.397 8.28153 112.323 8.84033 112.111 9.34265C111.6 10.5601 110.707 11.3716 109.366 11.5761C108.499 11.7086 107.677 11.4994 106.902 11.0999C106.833 11.0642 106.767 11.0244 106.667 10.9685C106.66 11.0779 106.648 11.1599 106.648 11.2426C106.647 12.0641 106.65 12.8857 106.647 13.7078C106.644 14.4063 106.162 14.9199 105.528 14.9116C104.902 14.9033 104.436 14.4045 104.436 13.7144C104.432 10.6356 104.433 7.55687 104.436 4.47813C104.436 4.35091 104.446 4.21835 104.483 4.09767C104.584 3.76596 104.888 3.54303 105.236 3.52282C105.598 3.50201 105.89 3.6756 106.038 4.01444C106.092 4.1375 106.117 4.27363 106.158 4.41274C106.194 4.39966 106.225 4.39669 106.243 4.37945C108.105 2.60615 111.702 3.20359 112.418 6.57541C112.462 6.78644 112.495 7.00045 112.534 7.21327V7.74829ZM106.648 7.59016C106.657 8.04433 106.807 8.55558 107.179 8.98775C107.942 9.87529 109.209 9.80812 109.867 8.84211C110.185 8.37486 110.312 7.85054 110.259 7.29293C110.149 6.15452 109.346 5.40787 108.344 5.49407C107.367 5.57789 106.657 6.41133 106.649 7.59076L106.648 7.59016Z" fill="url(#paint0_linear_1_2095)"/>
<path d="M42.0292 5.33953C41.6529 5.74555 41.3372 6.08439 41.0233 6.42443C40.5263 6.96302 40.0306 7.50339 39.5324 8.04079C39.0313 8.58175 38.6609 8.58175 38.1687 8.04673C37.4173 7.23053 36.6647 6.41551 35.9139 5.59871C35.8538 5.53392 35.8015 5.46139 35.7462 5.39303C35.7207 5.40135 35.6945 5.41027 35.669 5.41859C35.669 5.51965 35.669 5.62071 35.669 5.72177C35.669 7.26738 35.6713 8.81241 35.6666 10.3574C35.6654 10.8247 35.4478 11.176 35.0287 11.3829C34.6269 11.5814 34.2375 11.5267 33.8861 11.2557C33.6317 11.0595 33.4855 10.795 33.4635 10.4698C33.4569 10.3711 33.4563 10.2718 33.4563 10.1725C33.4563 7.02246 33.4563 3.87238 33.4546 0.722301C33.4546 0.496404 33.4504 0.282396 33.7084 0.179553C33.9616 0.0784935 34.1346 0.222355 34.2815 0.383455C34.9021 1.06412 35.5138 1.75251 36.1273 2.43972C36.8858 3.28921 37.6414 4.14227 38.4011 4.99057C38.7739 5.4067 38.9254 5.4067 39.3041 4.98285C40.6102 3.51986 41.9132 2.05391 43.2193 0.590924C43.331 0.465492 43.4398 0.319847 43.5825 0.246133C43.7061 0.181931 43.9029 0.149829 44.0176 0.206304C44.1264 0.259806 44.2323 0.445279 44.2328 0.573684C44.2441 3.83255 44.2447 7.09202 44.2388 10.3509C44.2376 11.0256 43.7626 11.4982 43.1319 11.494C42.5125 11.4905 42.0339 10.9941 42.0321 10.3342C42.0274 8.80884 42.0303 7.28343 42.0303 5.75744C42.0303 5.64984 42.0303 5.54224 42.0303 5.33953H42.0292Z" fill="url(#paint1_linear_1_2095)"/>
<path d="M83.7358 5.78231C83.7661 2.43249 86.5256 -0.167706 89.8641 0.0302512C90.8836 0.0908868 91.8199 0.414277 92.6611 0.999827C93.2003 1.37494 93.3537 1.99913 93.0332 2.50145C92.7093 3.00913 92.1172 3.13575 91.6137 2.80641C90.8432 2.3023 90.0056 2.0556 89.0806 2.14358C87.9416 2.25237 87.0672 2.81057 86.5155 3.79501C85.7522 5.15634 85.7391 6.5676 86.5048 7.93131C87.5689 9.82707 90.1632 10.1849 91.8722 8.69996C92.132 8.47406 92.4108 8.32069 92.7574 8.3629C93.1634 8.41224 93.4577 8.63041 93.5861 9.03048C93.7092 9.41391 93.6343 9.77297 93.3346 10.0369C92.1178 11.1087 90.713 11.6812 89.0699 11.5772C86.3865 11.4072 84.1519 9.30513 83.797 6.58128C83.7625 6.31674 83.7566 6.04864 83.737 5.78231H83.7358Z" fill="url(#paint2_linear_1_2095)"/>
<path d="M5.73271 0C6.89846 0.017834 7.95899 0.349546 8.91846 1.00168C9.44813 1.36192 9.60507 1.98195 9.30248 2.47952C8.98623 3.00087 8.37571 3.13819 7.86566 2.8047C7.09523 2.30118 6.25703 2.05507 5.33204 2.14484C4.20612 2.25422 3.34176 2.8041 2.78415 3.77308C2.04701 5.05475 1.99827 6.4036 2.65099 7.72688C3.66753 9.7873 6.30994 10.2534 8.10701 8.71607C8.37511 8.48721 8.6563 8.31838 9.01654 8.36296C9.42494 8.41409 9.7204 8.63701 9.84345 9.03352C9.96472 9.42468 9.8815 9.79325 9.56524 10.0625C7.93581 11.4482 6.0882 11.988 4.01411 11.3187C1.91207 10.641 0.592352 9.16668 0.134018 7.01412C-0.556753 3.76892 1.49178 0.734761 4.73103 0.112354C5.05977 0.0493407 5.39862 0.0362625 5.73211 0H5.73271Z" fill="url(#paint3_linear_1_2095)"/>
<path d="M100.632 4.64808C100.667 4.47628 100.692 4.38473 100.704 4.29199C100.768 3.7974 101.12 3.46687 101.567 3.4853C102.011 3.50373 102.371 3.86398 102.412 4.33182C102.415 4.37106 102.415 4.41089 102.415 4.45072C102.415 6.47131 102.418 8.4919 102.413 10.5125C102.412 11.1599 101.916 11.5837 101.334 11.4523C100.99 11.3745 100.785 11.1551 100.703 10.8175C100.673 10.6956 100.657 10.5708 100.626 10.3978C100.072 11.1361 99.3156 11.425 98.4863 11.5427C96.9716 11.7579 95.816 11.1587 94.9998 9.89841C93.9309 8.24758 94.1039 5.97969 95.3802 4.56723C96.735 3.06858 99.0047 2.99784 100.442 4.41148C100.497 4.46617 100.54 4.53275 100.632 4.64689V4.64808ZM96.5305 7.51222C96.524 7.98066 96.6476 8.41224 96.9045 8.8034C97.5839 9.83837 98.9429 9.89306 99.6812 8.89792C100.222 8.1697 100.298 7.35766 99.9208 6.54027C99.381 5.37036 97.8491 5.12603 97.0311 6.05994C96.6684 6.47369 96.5222 6.96828 96.5305 7.51222Z" fill="url(#paint4_linear_1_2095)"/>
<path d="M51.9062 4.59821C51.9294 4.47813 51.9502 4.39371 51.9609 4.30871C52.0269 3.79568 52.386 3.45862 52.8407 3.48656C53.3092 3.51509 53.6641 3.90031 53.6724 4.40382C53.6801 4.85918 53.6742 5.31514 53.6742 5.7705C53.6742 7.35535 53.6771 8.9396 53.6724 10.5245C53.6706 11.1653 53.1659 11.5868 52.5827 11.4494C52.2385 11.368 52.0388 11.1433 51.9591 10.8068C51.9306 10.6867 51.9157 10.5631 51.8943 10.4389C50.8701 11.4994 49.6366 11.8293 48.2734 11.4488C46.7801 11.0321 45.9824 9.90205 45.6774 8.44263C45.3427 6.84232 45.7018 5.39896 46.949 4.27839C48.3382 3.0306 50.3731 3.10967 51.7089 4.4169C51.763 4.46981 51.82 4.51974 51.9062 4.59881V4.59821ZM49.57 9.61016C50.0081 9.60957 50.3868 9.45382 50.7018 9.15896C51.31 8.58887 51.4865 7.87254 51.3599 7.07179C51.2232 6.20862 50.5021 5.54401 49.6692 5.49229C48.853 5.44117 48.1343 5.96786 47.8864 6.81676C47.698 7.46235 47.7557 8.09368 48.088 8.68279C48.4108 9.25586 48.8893 9.60065 49.57 9.61016Z" fill="url(#paint5_linear_1_2095)"/>
<path d="M63.8966 7.96949C63.8966 8.75181 63.9067 9.53413 63.8937 10.3159C63.8806 11.0988 63.2029 11.632 62.4901 11.4275C62.077 11.3086 61.816 11.0256 61.7102 10.6089C61.681 10.4948 61.6703 10.3735 61.6703 10.2558C61.668 7.28407 61.6662 4.31233 61.6703 1.34059C61.6715 0.66468 62.074 0.184351 62.6554 0.133226C63.3723 0.070213 63.8931 0.561243 63.8954 1.32276C63.9008 3.05622 63.8972 4.78969 63.8972 6.52315C63.8972 6.62718 63.8972 6.73122 63.8972 6.83465C63.9263 6.8507 63.9555 6.86616 63.9846 6.88221C64.0399 6.80434 64.088 6.71933 64.1522 6.64859C64.8822 5.83952 65.6117 5.03045 66.347 4.22673C66.52 4.03709 66.6989 3.84686 66.9017 3.6923C67.3231 3.37069 67.8344 3.44203 68.2029 3.84746C68.5709 4.25229 68.5935 4.80752 68.2463 5.19274C67.7024 5.79612 67.1513 6.39237 66.6032 6.99219C66.5111 7.09325 66.4201 7.19609 66.3173 7.31142C66.9843 8.11811 67.6418 8.90934 68.2939 9.70534C68.7035 10.2059 68.6333 10.8188 68.1292 11.223C67.6739 11.588 67.1608 11.5619 66.718 11.1112C66.3785 10.7659 66.0742 10.3854 65.7567 10.0186C65.2128 9.38908 64.6706 8.75775 64.1285 8.12702C64.0726 8.06223 64.0215 7.99327 63.9686 7.9261C63.9448 7.94036 63.921 7.95522 63.8978 7.96949H63.8966Z" fill="url(#paint6_linear_1_2095)"/>
<path d="M71.1818 8.17451C71.1539 9.00379 71.7097 9.58993 72.6157 9.70229C73.275 9.78373 73.9182 9.70467 74.5257 9.41159C75.0453 9.16132 75.5411 9.28676 75.7979 9.72369C76.06 10.1695 75.9304 10.6398 75.4549 10.9863C74.9513 11.3531 74.3759 11.5136 73.7672 11.5784C72.9409 11.6658 72.1223 11.6278 71.334 11.3484C69.9109 10.8431 69.166 9.79205 68.9633 8.32491C68.8616 7.59074 68.9086 6.86192 69.0923 6.14559C69.5239 4.46563 70.7681 3.47346 72.5027 3.41758C74.8782 3.3403 76.469 4.84549 76.532 7.23049C76.5469 7.78513 76.1837 8.17034 75.6189 8.17332C74.2624 8.17986 72.9058 8.1757 71.5492 8.1757C71.4321 8.1757 71.315 8.1757 71.1812 8.1757L71.1818 8.17451ZM74.361 6.73411C74.4145 6.06712 73.6899 5.50416 72.7792 5.49346C71.9552 5.48395 71.145 5.95358 71.18 6.73411H74.361Z" fill="url(#paint7_linear_1_2095)"/>
<path d="M10.5647 7.49214C10.5581 5.25575 12.3986 3.41944 14.6528 3.41409C16.8315 3.40934 18.6072 5.22662 18.612 7.46657C18.6167 9.70474 16.8167 11.6076 14.6885 11.6136C12.4348 11.6201 10.5718 9.75824 10.5652 7.49214H10.5647ZM12.7808 7.6461C12.7945 8.13773 12.9919 8.69177 13.4579 9.12989C14.2492 9.87357 15.3899 9.74695 15.9999 8.84811C16.3173 8.38027 16.441 7.85417 16.3863 7.29774C16.3096 6.51483 15.9743 5.88945 15.1926 5.61065C13.9715 5.1755 12.7779 6.12248 12.7808 7.6461Z" fill="url(#paint8_linear_1_2095)"/>
<path d="M26.0018 4.35384C26.7954 3.5852 27.7353 3.32304 28.7798 3.43183C30.3325 3.59411 31.3461 4.61541 31.5619 6.20739C31.5987 6.48144 31.6207 6.75906 31.6225 7.03548C31.629 8.12455 31.6278 9.21421 31.6243 10.3039C31.6219 10.9851 31.1493 11.491 30.5227 11.494C29.8896 11.497 29.4194 11.0083 29.4129 10.3169C29.4045 9.33667 29.4188 8.3558 29.4057 7.37552C29.401 7.03132 29.3724 6.68237 29.3059 6.34471C29.222 5.92026 28.9337 5.66167 28.5164 5.54397C27.4125 5.23365 26.6539 5.72528 26.4988 6.85952C26.4732 7.045 26.4637 7.23404 26.4631 7.42189C26.4596 8.38255 26.4649 9.34321 26.4601 10.3039C26.4566 10.994 25.9929 11.4904 25.3622 11.4934C24.7297 11.4964 24.2541 11 24.2523 10.3163C24.2481 8.36531 24.2493 6.41427 24.2523 4.46323C24.2529 3.94604 24.5388 3.58639 24.9793 3.52813C25.4597 3.46452 25.7842 3.70528 25.9441 4.24268C25.9519 4.26943 25.9703 4.29321 26.0024 4.35444L26.0018 4.35384Z" fill="url(#paint9_linear_1_2095)"/>
<path d="M78.5906 5.46913C78.3819 5.46913 78.2155 5.47388 78.0496 5.46853C77.4587 5.44891 76.9944 4.98701 77.0051 4.43416C77.0164 3.86288 77.47 3.42356 78.0633 3.41286C78.2214 3.40989 78.3789 3.41286 78.5858 3.41286C78.5858 3.17567 78.5858 2.95275 78.5858 2.72982C78.5858 2.26435 78.5822 1.79889 78.587 1.33401C78.5941 0.662265 79.0513 0.179557 79.6784 0.173018C80.3092 0.166479 80.7883 0.663454 80.7949 1.34412C80.8008 2.01646 80.796 2.6888 80.796 3.41286C81.0743 3.41286 81.3358 3.41168 81.598 3.41286C82.2578 3.41643 82.7001 3.82245 82.7084 4.4294C82.7162 5.01198 82.2442 5.4614 81.6116 5.46972C81.3554 5.47329 81.0992 5.46972 80.8394 5.46972C80.8216 5.52738 80.8002 5.56424 80.8002 5.59991C80.8127 6.67827 80.8115 7.75782 80.8478 8.83559C80.8686 9.46513 81.0481 9.60543 81.6753 9.61078C82.2834 9.61553 82.6538 9.83786 82.8059 10.2897C83.0063 10.8841 82.6003 11.5422 81.9553 11.5797C81.4553 11.6088 80.9441 11.5814 80.4483 11.5059C79.6166 11.3793 79.0691 10.8627 78.8426 10.065C78.7035 9.57511 78.6197 9.05733 78.6013 8.54906C78.5644 7.54203 78.5906 6.53203 78.5906 5.46853V5.46913Z" fill="url(#paint10_linear_1_2095)"/>
<path d="M57.3919 4.35324C57.5625 4.22186 57.7152 4.0994 57.8734 3.98348C58.4375 3.56913 59.0748 3.39317 59.7691 3.41457C60.3404 3.43241 60.7756 3.87231 60.7946 4.44181C60.8124 4.97386 60.379 5.42625 59.809 5.46786C59.6021 5.48332 59.391 5.47381 59.1877 5.50888C58.3549 5.65453 57.9156 6.15031 57.9019 6.99624C57.8841 8.09481 57.8972 9.19398 57.8882 10.2926C57.8829 11.0172 57.3716 11.5285 56.7052 11.4928C56.1019 11.4607 55.6643 10.9584 55.662 10.2718C55.6566 8.80639 55.6602 7.34162 55.6602 5.87626C55.6602 5.39118 55.6489 4.9055 55.6643 4.42101C55.6834 3.82059 56.1215 3.43597 56.6755 3.53168C57.1125 3.60718 57.3092 3.92403 57.3925 4.35324H57.3919Z" fill="url(#paint11_linear_1_2095)"/>
<path d="M22.202 7.54023C22.202 8.46106 22.2091 9.38188 22.1996 10.3021C22.1925 10.962 21.771 11.4459 21.1896 11.4905C20.5535 11.5398 19.9888 11.0369 19.9852 10.3735C19.9739 8.46284 19.9757 6.55222 19.984 4.6416C19.987 3.99185 20.4655 3.52103 21.0832 3.51866C21.6991 3.51568 22.1818 3.97402 22.1949 4.62971C22.2145 5.59929 22.2002 6.57006 22.2002 7.54023C22.2008 7.54023 22.202 7.54023 22.2026 7.54023H22.202Z" fill="url(#paint12_linear_1_2095)"/>
<path d="M21.1099 2.64714C20.3936 2.64714 19.8068 2.05861 19.8104 1.34288C19.8134 0.615247 20.393 0.021969 21.0974 0.0237524C21.8125 0.0255358 22.4106 0.642593 22.3999 1.36606C22.3886 2.07823 21.8155 2.64714 21.1105 2.64714H21.1099Z" fill="url(#paint13_linear_1_2095)"/>
<defs>
<linearGradient id="paint0_linear_1_2095" x1="108.484" y1="3.4048" x2="108.484" y2="14.9117" gradientUnits="userSpaceOnUse">
<stop stop-color="#F4B515"/>
<stop offset="1" stop-color="#D29803"/>
</linearGradient>
<linearGradient id="paint1_linear_1_2095" x1="38.8485" y1="0.14592" x2="38.8485" y2="11.502" gradientUnits="userSpaceOnUse">
<stop stop-color="#F4B515"/>
<stop offset="1" stop-color="#D29803"/>
</linearGradient>
<linearGradient id="paint2_linear_1_2095" x1="88.6892" y1="0.0196552" x2="88.6892" y2="11.5893" gradientUnits="userSpaceOnUse">
<stop stop-color="#F4B515"/>
<stop offset="1" stop-color="#D29803"/>
</linearGradient>
<linearGradient id="paint3_linear_1_2095" x1="4.94838" y1="0" x2="4.94838" y2="11.6048" gradientUnits="userSpaceOnUse">
<stop stop-color="#F4B515"/>
<stop offset="1" stop-color="#D29803"/>
</linearGradient>
<linearGradient id="paint4_linear_1_2095" x1="98.357" y1="3.3956" x2="98.357" y2="11.5857" gradientUnits="userSpaceOnUse">
<stop stop-color="#F4B515"/>
<stop offset="1" stop-color="#D29803"/>
</linearGradient>
<linearGradient id="paint5_linear_1_2095" x1="49.6176" y1="3.38778" x2="49.6176" y2="11.6013" gradientUnits="userSpaceOnUse">
<stop stop-color="#F4B515"/>
<stop offset="1" stop-color="#D29803"/>
</linearGradient>
<linearGradient id="paint6_linear_1_2095" x1="65.1138" y1="0.127798" x2="65.1138" y2="11.4752" gradientUnits="userSpaceOnUse">
<stop stop-color="#F4B515"/>
<stop offset="1" stop-color="#D29803"/>
</linearGradient>
<linearGradient id="paint7_linear_1_2095" x1="72.7216" y1="3.41474" x2="72.7216" y2="11.6201" gradientUnits="userSpaceOnUse">
<stop stop-color="#F4B515"/>
<stop offset="1" stop-color="#D29803"/>
</linearGradient>
<linearGradient id="paint8_linear_1_2095" x1="14.5883" y1="3.41408" x2="14.5883" y2="11.6136" gradientUnits="userSpaceOnUse">
<stop stop-color="#F4B515"/>
<stop offset="1" stop-color="#D29803"/>
</linearGradient>
<linearGradient id="paint9_linear_1_2095" x1="27.9384" y1="3.40831" x2="27.9384" y2="11.494" gradientUnits="userSpaceOnUse">
<stop stop-color="#F4B515"/>
<stop offset="1" stop-color="#D29803"/>
</linearGradient>
<linearGradient id="paint10_linear_1_2095" x1="79.9312" y1="0.172955" x2="79.9312" y2="11.5911" gradientUnits="userSpaceOnUse">
<stop stop-color="#F4B515"/>
<stop offset="1" stop-color="#D29803"/>
</linearGradient>
<linearGradient id="paint11_linear_1_2095" x1="58.2257" y1="3.41284" x2="58.2257" y2="11.4945" gradientUnits="userSpaceOnUse">
<stop stop-color="#F4B515"/>
<stop offset="1" stop-color="#D29803"/>
</linearGradient>
<linearGradient id="paint12_linear_1_2095" x1="21.0912" y1="3.51864" x2="21.0912" y2="11.4938" gradientUnits="userSpaceOnUse">
<stop stop-color="#F4B515"/>
<stop offset="1" stop-color="#D29803"/>
</linearGradient>
<linearGradient id="paint13_linear_1_2095" x1="21.1052" y1="0.0237484" x2="21.1052" y2="2.64714" gradientUnits="userSpaceOnUse">
<stop stop-color="#F4B515"/>
<stop offset="1" stop-color="#D29803"/>
</linearGradient>
</defs>
</svg>
