<svg width="102" height="37" viewBox="0 0 102 37" fill="none" xmlns="http://www.w3.org/2000/svg">
<path d="M101.176 0.062665C101.119 0.170002 101.051 0.274237 101.004 0.385917C99.1913 4.7036 97.3777 9.02128 95.5773 13.3445C95.4574 13.6324 95.3117 13.7181 95.0041 13.715C93.1428 13.7001 91.2821 13.7075 89.4207 13.7075H89.0284C89.0792 13.566 89.1112 13.463 89.1527 13.3644C90.9801 9.00763 92.8107 4.65272 94.6287 0.29223C94.7285 0.0533583 94.8528 0.00248178 95.0908 0.00310223C97.1191 0.00930668 99.1474 0.00310223 101.176 0V0.0620446L101.176 0.062665Z" fill="url(#paint0_linear_1_2134)"/>
<path d="M62.0905 36.297C61.9505 36.2635 61.8105 36.2263 61.6692 36.1965C59.9786 35.836 58.9717 34.7602 58.5392 33.1625C58.0928 31.5146 58.327 29.9492 59.467 28.6202C60.4802 27.4383 61.8011 27.0406 63.3347 27.3948C63.8645 27.5171 64.3222 27.7826 64.697 28.1779C64.7396 28.2225 64.7842 28.2666 64.8307 28.3069C64.8432 28.3175 64.8683 28.3143 64.9399 28.3255C64.9399 28.1288 64.9462 27.9384 64.938 27.7485C64.9305 27.5779 64.9958 27.5096 65.1741 27.5103C66.031 27.5158 66.8885 27.5189 67.7454 27.509C68.0022 27.5059 67.999 27.6554 67.999 27.8304C67.9978 29.1513 67.999 30.4723 67.999 31.7932C67.999 33.0831 67.9928 34.373 68.0041 35.6629C68.0066 35.9402 67.9312 36.0408 67.6337 36.0327C66.8502 36.0122 66.0655 36.0135 65.282 36.0327C64.9977 36.0395 64.906 35.9446 64.9361 35.6778C64.9531 35.5277 64.9393 35.3738 64.9393 35.1752C64.8527 35.2236 64.8031 35.2379 64.7736 35.2702C64.2594 35.8317 63.6134 36.1326 62.8601 36.23C62.7898 36.2393 62.7226 36.2734 62.6536 36.2964H62.0892L62.0905 36.297ZM63.2123 33.5286C64.2305 33.5286 65.0404 32.7462 65.0422 31.7628C65.0441 30.7912 64.2136 29.9896 63.2085 29.9927C62.1934 29.9964 61.3842 30.7831 61.3849 31.7665C61.3849 32.7524 62.1909 33.5286 63.2129 33.528L63.2123 33.5286Z" fill="url(#paint1_linear_1_2134)"/>
<path d="M90.3863 36.2972C90.0712 36.2352 89.7529 36.1837 89.4409 36.1086C87.5055 35.6439 86.2983 34.1809 86.1866 32.2128C86.0968 30.6295 86.5639 29.2769 87.8301 28.2575C89.9105 26.5829 93.1994 27.0818 94.5353 29.2632C95.1072 30.1976 95.2585 31.2257 95.2082 32.2985C95.1963 32.5466 95.0362 32.5113 94.8837 32.5113C93.3896 32.5125 91.8955 32.5119 90.4014 32.5119C90.0775 32.5119 89.7535 32.5156 89.4296 32.5119C89.23 32.51 89.1816 32.5888 89.2243 32.7818C89.3913 33.5369 90.2664 34.0618 91.1453 33.8558C91.4824 33.777 91.7787 33.5307 92.0976 33.3693C92.1949 33.3203 92.3261 33.2434 92.4078 33.2726C93.2019 33.558 93.9891 33.8632 94.7776 34.1648C94.804 34.1747 94.8234 34.2045 94.8648 34.2417C94.3413 35.0843 93.6068 35.6656 92.6595 35.969C92.2847 36.0888 91.8873 36.139 91.5006 36.2228C91.4002 36.2445 91.3016 36.2724 91.2024 36.2972H90.387H90.3863ZM92.2056 30.779C92.156 30.2801 91.9162 29.9339 91.4906 29.7416C90.8904 29.4711 90.2871 29.4928 89.7322 29.8676C89.4221 30.0773 89.2319 30.3714 89.2356 30.7784H92.2056V30.779Z" fill="url(#paint2_linear_1_2134)"/>
<path d="M83.1081 36.2969C82.7823 36.2305 82.4533 36.1778 82.1319 36.0965C80.1896 35.607 78.9177 34.0373 78.8562 32.0587C78.7965 30.1359 79.5179 28.6264 81.3114 27.7509C82.5688 27.1373 83.8846 27.1168 85.2098 27.5753C85.4201 27.6479 85.4999 27.759 85.4967 27.9811C85.4854 28.7827 85.4923 29.5843 85.4923 30.3921C85.1245 30.273 84.798 30.1303 84.4559 30.0639C83.7723 29.9324 83.1194 30.0242 82.5682 30.4877C82.0321 30.9388 81.8494 31.6746 82.0873 32.3503C82.3252 33.0259 82.9857 33.5111 83.8168 33.5024C84.2619 33.4975 84.7064 33.3331 85.1489 33.2319C85.2456 33.2096 85.3335 33.1488 85.4603 33.0898C85.4729 33.2065 85.4905 33.2927 85.4911 33.3796C85.4936 34.0919 85.4848 34.8035 85.4967 35.5158C85.5005 35.7379 85.4264 35.8682 85.2105 35.9234C84.8275 36.0214 84.4452 36.1207 84.0629 36.2212C83.9738 36.2442 83.8865 36.2721 83.798 36.2975H83.1081V36.2969Z" fill="url(#paint3_linear_1_2134)"/>
<path d="M36.8355 0.0248337H42.1772V8.16074C42.2808 8.06829 42.326 8.03417 42.3643 7.99322C43.8377 6.40922 45.6827 6.06673 47.7022 6.54882C49.6709 7.01912 50.7614 8.39651 51.2259 10.2783C51.3778 10.8944 51.4632 11.5415 51.4682 12.1756C51.4927 15.3027 51.4801 18.4297 51.4801 21.5574C51.4801 21.6381 51.4707 21.7193 51.4645 21.8217H46.1052C46.0995 21.6989 46.0889 21.5797 46.0889 21.4606C46.0876 18.8802 46.0951 16.3004 46.0807 13.7199C46.0782 13.3123 46.0248 12.8929 45.9175 12.5001C45.7254 11.7984 45.2395 11.3703 44.4962 11.2816C43.7322 11.191 43.0869 11.415 42.6462 12.0708C42.2984 12.5889 42.2042 13.1783 42.2036 13.7857C42.2011 16.3351 42.2023 18.8839 42.2023 21.4333C42.2023 21.5555 42.2023 21.6778 42.2023 21.8217H36.8355V0.0248337Z" fill="url(#paint4_linear_1_2134)"/>
<path d="M34.961 6.74381V21.82H29.7863V20.4861C29.6927 20.5431 29.6463 20.5587 29.6187 20.5897C28.6331 21.709 27.3417 22.178 25.8891 22.2202C23.3328 22.2947 21.3013 21.2647 19.8298 19.2123C17.5674 16.0579 17.8662 11.4524 20.484 8.62562C22.3516 6.60917 25.2199 5.83734 27.6569 6.69976C28.397 6.96159 29.0499 7.35867 29.581 7.93817C29.6205 7.9816 29.6664 8.01882 29.7599 8.10631V6.74319H34.9616L34.961 6.74381ZM26.7246 17.4155C28.5044 17.4155 29.8898 16.0505 29.8905 14.2971C29.8911 12.5468 28.5012 11.1726 26.7278 11.1701C24.9286 11.1676 23.5293 12.5338 23.5287 14.294C23.5287 16.0586 24.9179 17.4161 26.7246 17.4161V17.4155Z" fill="url(#paint5_linear_1_2134)"/>
<path d="M5.01011 27.4585C5.35099 26.6606 5.66236 25.9303 5.97499 25.2C6.39434 24.2216 6.80867 23.2407 7.23807 22.2672C7.32909 22.0606 7.32846 21.89 7.23869 21.6821C5.16266 16.86 3.0929 12.0348 1.02189 7.21022C0.961626 7.06938 0.901988 6.9273 0.823517 6.74116C0.959115 6.73185 1.05767 6.71883 1.15561 6.71883C2.89076 6.71758 4.62592 6.72317 6.36107 6.712C6.60402 6.71076 6.70258 6.79948 6.7867 7.01292C7.85642 9.73419 8.93618 12.4517 10.0134 15.1699C10.0586 15.2841 10.1076 15.3976 10.1867 15.5875C10.2601 15.4268 10.311 15.3263 10.3524 15.2214C11.4422 12.497 12.5352 9.77328 13.6143 7.04518C13.7141 6.79266 13.8397 6.7089 14.114 6.71138C15.7657 6.72503 17.4173 6.7182 19.0684 6.7182H19.4356C19.3904 6.84478 19.3622 6.93598 19.3251 7.02408C16.5077 13.7317 13.6884 20.4387 10.8766 27.1482C10.7774 27.3846 10.6556 27.4665 10.3957 27.4647C8.72337 27.4529 7.05099 27.4585 5.37861 27.4585H5.00886H5.01011Z" fill="url(#paint6_linear_1_2134)"/>
<path d="M86.3493 14.0425C86.3512 18.4768 83.3228 21.7838 79.0917 22.1772C76.2799 22.4384 73.7952 21.6833 71.9219 19.5366C69.8113 17.1181 69.4077 14.3019 70.5239 11.3566C71.6212 8.46223 73.8818 6.86272 76.9541 6.45074C79.6359 6.09088 82.0478 6.75662 84.0197 8.65332C85.6161 10.1889 86.3167 12.1104 86.3487 14.0425H86.3493ZM78.2034 11.2331C76.4795 11.1984 75.1116 12.5125 75.0802 14.2318C75.0495 15.9616 76.3565 17.3247 78.0747 17.3545C79.8249 17.3849 81.1897 16.1005 81.2261 14.3887C81.2631 12.6192 79.9693 11.2679 78.2034 11.2325V11.2331Z" fill="url(#paint7_linear_1_2134)"/>
<path d="M69.0178 13.7821C69.0259 18.4726 65.9976 21.7852 61.7677 22.1767C58.9182 22.4404 56.4103 21.6648 54.5357 19.4685C52.4716 17.0493 52.0837 14.2493 53.2061 11.3301C54.3116 8.45369 56.5672 6.88396 59.6226 6.44469C61.3828 6.19155 63.0966 6.42049 64.6843 7.23513C67.5639 8.71304 68.9161 11.1303 69.0178 13.7815V13.7821ZM60.8348 17.3552C62.5681 17.3521 63.8996 16.0281 63.9033 14.3039C63.9071 12.5654 62.563 11.2271 60.8203 11.2327C59.0839 11.2382 57.7593 12.5586 57.7562 14.2865C57.7531 16.0318 59.0839 17.3577 60.8342 17.3552H60.8348Z" fill="url(#paint8_linear_1_2134)"/>
<path d="M72.502 28.4892C72.6275 28.3732 72.6771 28.3378 72.7135 28.2919C73.4882 27.3271 74.5221 27.1168 75.6722 27.3569C76.811 27.5939 77.4701 28.3521 77.7514 29.4378C77.838 29.7741 77.8838 30.1296 77.8863 30.4765C77.9002 32.2205 77.8888 33.964 77.9001 35.7081C77.902 35.9736 77.8085 36.0369 77.5568 36.0326C76.752 36.0189 75.9465 36.0127 75.1424 36.035C74.8335 36.0437 74.782 35.9277 74.7839 35.6591C74.7952 34.2662 74.7927 32.8726 74.7852 31.4797C74.7839 31.2452 74.7613 31.0026 74.6948 30.7786C74.5642 30.3394 74.2434 30.0875 73.7801 30.0527C73.3281 30.0192 72.9257 30.1706 72.7399 30.5913C72.6024 30.9027 72.5195 31.262 72.5133 31.602C72.4882 32.9638 72.4957 34.3263 72.5089 35.6882C72.5114 35.9649 72.4241 36.0388 72.1517 36.0332C71.3475 36.0164 70.5421 36.0152 69.7373 36.0332C69.451 36.04 69.3895 35.9401 69.3907 35.677C69.3995 33.0662 69.3989 30.4554 69.3907 27.8452C69.3901 27.5945 69.4548 27.5027 69.7222 27.5076C70.5477 27.5232 71.3739 27.5207 72.1994 27.5089C72.4304 27.5058 72.5246 27.5728 72.5057 27.8067C72.49 28.0034 72.5026 28.2025 72.5026 28.4886L72.502 28.4892Z" fill="url(#paint9_linear_1_2134)"/>
<path d="M52.0231 28.4574C52.1242 28.3755 52.1619 28.3569 52.1832 28.3265C52.9284 27.2723 54.359 27.0713 55.4595 27.4293C56.5512 27.7842 57.324 28.7856 57.3585 30.06C57.41 31.9685 57.3824 33.8788 57.3912 35.788C57.3918 35.9555 57.3315 36.0287 57.1526 36.0274C56.285 36.0219 55.4168 36.0194 54.5493 36.0287C54.2894 36.0318 54.2988 35.8761 54.2988 35.7036C54.2988 34.3411 54.3038 32.9786 54.295 31.6161C54.2931 31.3505 54.2718 31.0769 54.204 30.8213C54.0753 30.3349 53.7225 30.0724 53.2303 30.0433C52.7689 30.0153 52.3383 30.266 52.1694 30.7133C52.0802 30.9491 52.0325 31.2134 52.03 31.4653C52.0168 32.8688 52.0175 34.2728 52.0281 35.6769C52.03 35.9412 51.9635 36.0386 51.6785 36.0324C50.853 36.0144 50.0268 36.0206 49.2007 36.0299C48.9853 36.0324 48.9044 35.9654 48.9044 35.7482C48.9094 33.0952 48.9094 30.4428 48.9044 27.7898C48.9044 27.572 48.9872 27.5069 49.2007 27.5087C50.0475 27.5174 50.8944 27.5187 51.7412 27.5081C51.9666 27.505 52.0382 27.5888 52.025 27.7979C52.0131 27.9914 52.0225 28.1863 52.0225 28.458L52.0231 28.4574Z" fill="url(#paint10_linear_1_2134)"/>
<path d="M43.2944 26.0298C42.9654 25.9944 42.6666 25.9355 42.3684 25.9361C41.585 25.9392 41.0846 26.4622 41.0859 27.2353C41.0859 27.4264 41.1455 27.5182 41.3558 27.5145C41.8675 27.5052 42.3804 27.5226 42.8914 27.5077C43.1312 27.5008 43.2297 27.5697 43.2247 27.8185C43.2122 28.4272 43.214 29.0358 43.2241 29.6445C43.2279 29.8765 43.1613 29.977 42.9039 29.9665C42.4344 29.9473 41.9635 29.9603 41.4933 29.9615C41.0872 29.9615 41.0847 29.9628 41.084 30.3778C41.0828 31.9563 41.0853 33.5347 41.0815 35.1131C41.0809 35.3997 41.1663 35.8068 41.0143 35.9414C40.8404 36.0959 40.4468 36.0196 40.148 36.0239C39.5523 36.032 38.9559 36.009 38.3614 36.0332C38.0582 36.0456 37.9985 35.9346 38.0004 35.6628C38.0105 33.8989 38.0061 32.135 38.0054 30.3704C38.0054 29.9628 38.0036 29.9628 37.5905 29.9615C37.0845 29.9603 36.8315 29.7144 36.8315 29.2238C36.8315 28.7908 36.8315 28.3571 36.8315 27.924C36.8315 27.6498 36.9755 27.5124 37.2634 27.512C37.4097 27.512 37.5566 27.5021 37.7022 27.5139C37.9383 27.5331 37.991 27.4239 38.0142 27.2068C38.0707 26.6769 38.0958 26.129 38.2597 25.6283C38.7079 24.2572 39.7437 23.566 41.155 23.3662C41.8053 23.2744 42.4482 23.3017 43.074 23.5008C43.1783 23.5343 43.3245 23.6628 43.3264 23.7503C43.3446 24.4818 43.3333 25.2145 43.3289 25.9466C43.3289 25.9745 43.3063 26.0025 43.2944 26.0291V26.0298Z" fill="url(#paint11_linear_1_2134)"/>
<path d="M90.6738 15.0634C92.6512 15.0621 94.1805 16.5617 94.188 18.5099C94.1956 20.5227 92.5897 22.111 90.5488 22.1098C88.5795 22.1085 87.0528 20.5971 87.0515 18.6489C87.0503 16.6548 88.6567 15.0652 90.6744 15.0634H90.6738Z" fill="url(#paint12_linear_1_2134)"/>
<path d="M44.4048 31.7462C44.4048 30.4569 44.4111 29.1676 44.3998 27.8783C44.3973 27.6084 44.4569 27.4986 44.7601 27.5067C45.5536 27.5277 46.3484 27.524 47.1419 27.5085C47.4181 27.5029 47.5198 27.5656 47.5179 27.864C47.506 30.4736 47.5079 33.0832 47.5154 35.6928C47.5161 35.9397 47.4583 36.0384 47.1865 36.0328C46.3823 36.0167 45.5775 36.0117 44.7733 36.0347C44.4557 36.0434 44.3954 35.9311 44.3986 35.645C44.4124 34.3458 44.4048 33.046 44.4048 31.7462Z" fill="url(#paint13_linear_1_2134)"/>
<path d="M45.9396 26.6372C44.9666 26.6347 44.2095 25.8846 44.217 24.9291C44.2239 24.0034 45.0049 23.2464 45.9491 23.2495C46.9064 23.2526 47.7043 24.0294 47.6986 24.9539C47.6936 25.892 46.9127 26.639 45.9396 26.6365V26.6372Z" fill="url(#paint14_linear_1_2134)"/>
<defs>
<linearGradient id="paint0_linear_1_2134" x1="95.1024" y1="0" x2="95.1024" y2="13.715" gradientUnits="userSpaceOnUse">
<stop stop-color="#F4B515"/>
<stop offset="1" stop-color="#D29803"/>
</linearGradient>
<linearGradient id="paint1_linear_1_2134" x1="63.1655" y1="27.2701" x2="63.1655" y2="36.297" gradientUnits="userSpaceOnUse">
<stop stop-color="#F4B515"/>
<stop offset="1" stop-color="#D29803"/>
</linearGradient>
<linearGradient id="paint2_linear_1_2134" x1="90.6965" y1="27.2598" x2="90.6965" y2="36.2972" gradientUnits="userSpaceOnUse">
<stop stop-color="#F4B515"/>
<stop offset="1" stop-color="#D29803"/>
</linearGradient>
<linearGradient id="paint3_linear_1_2134" x1="82.1748" y1="27.2577" x2="82.1748" y2="36.2975" gradientUnits="userSpaceOnUse">
<stop stop-color="#F4B515"/>
<stop offset="1" stop-color="#D29803"/>
</linearGradient>
<linearGradient id="paint4_linear_1_2134" x1="44.1595" y1="0.0248337" x2="44.1595" y2="21.8217" gradientUnits="userSpaceOnUse">
<stop stop-color="#F4B515"/>
<stop offset="1" stop-color="#D29803"/>
</linearGradient>
<linearGradient id="paint5_linear_1_2134" x1="26.6355" y1="6.35091" x2="26.6355" y2="22.224" gradientUnits="userSpaceOnUse">
<stop stop-color="#F4B515"/>
<stop offset="1" stop-color="#D29803"/>
</linearGradient>
<linearGradient id="paint6_linear_1_2134" x1="10.1296" y1="6.71133" x2="10.1296" y2="27.4647" gradientUnits="userSpaceOnUse">
<stop stop-color="#F4B515"/>
<stop offset="1" stop-color="#D29803"/>
</linearGradient>
<linearGradient id="paint7_linear_1_2134" x1="78.1337" y1="6.35712" x2="78.1337" y2="22.2268" gradientUnits="userSpaceOnUse">
<stop stop-color="#F4B515"/>
<stop offset="1" stop-color="#D29803"/>
</linearGradient>
<linearGradient id="paint8_linear_1_2134" x1="60.8033" y1="6.34679" x2="60.8033" y2="22.2261" gradientUnits="userSpaceOnUse">
<stop stop-color="#F4B515"/>
<stop offset="1" stop-color="#D29803"/>
</linearGradient>
<linearGradient id="paint9_linear_1_2134" x1="73.6454" y1="27.266" x2="73.6454" y2="36.0355" gradientUnits="userSpaceOnUse">
<stop stop-color="#F4B515"/>
<stop offset="1" stop-color="#D29803"/>
</linearGradient>
<linearGradient id="paint10_linear_1_2134" x1="53.1478" y1="27.266" x2="53.1478" y2="36.0327" gradientUnits="userSpaceOnUse">
<stop stop-color="#F4B515"/>
<stop offset="1" stop-color="#D29803"/>
</linearGradient>
<linearGradient id="paint11_linear_1_2134" x1="40.084" y1="23.3158" x2="40.084" y2="36.039" gradientUnits="userSpaceOnUse">
<stop stop-color="#F4B515"/>
<stop offset="1" stop-color="#D29803"/>
</linearGradient>
<linearGradient id="paint12_linear_1_2134" x1="90.6198" y1="15.0634" x2="90.6198" y2="22.1098" gradientUnits="userSpaceOnUse">
<stop stop-color="#F4B515"/>
<stop offset="1" stop-color="#D29803"/>
</linearGradient>
<linearGradient id="paint13_linear_1_2134" x1="45.9582" y1="27.5062" x2="45.9582" y2="36.0351" gradientUnits="userSpaceOnUse">
<stop stop-color="#F4B515"/>
<stop offset="1" stop-color="#D29803"/>
</linearGradient>
<linearGradient id="paint14_linear_1_2134" x1="45.9578" y1="23.2495" x2="45.9578" y2="26.6372" gradientUnits="userSpaceOnUse">
<stop stop-color="#F4B515"/>
<stop offset="1" stop-color="#D29803"/>
</linearGradient>
</defs>
</svg>
